<svg width="415" height="460" viewBox="0 0 415 460" fill="none" xmlns="http://www.w3.org/2000/svg">
<path opacity="0.6" d="M66.1673 201.918C81.4088 134.821 151.063 94.5437 216.469 115.619C217.786 116.044 219.104 116.48 220.442 116.938C305.943 146.374 277.882 233.355 320.633 260.111C363.383 286.877 394.111 325.676 375.407 376.528C356.703 427.38 243.15 475.551 153.644 420.689C83.2888 377.56 46.7727 287.314 66.1673 201.918Z" stroke="#19C9D1" stroke-width="1.89" stroke-miterlimit="10"/>
<path d="M255.508 348.176H75.9918C71.9602 348.176 69.2659 344.026 70.908 340.349L198.288 54.6428C199.183 52.6369 201.179 51.3389 203.372 51.3389H382.888C386.92 51.3389 389.614 55.4885 387.972 59.1662L260.592 344.872C259.697 346.878 257.711 348.176 255.508 348.176Z" fill="url(#paint0_linear_3453_37333)"/>
<path d="M309.915 146.653L367.852 16.7063C369.258 13.5498 366.948 10 363.496 10H200.942C194.915 10 189.447 13.5498 186.989 19.0564L128.176 150.97C126.77 154.126 129.081 157.676 132.532 157.676H292.923C300.268 157.676 306.925 153.349 309.925 146.643L309.915 146.653Z" fill="url(#paint1_linear_3453_37333)"/>
<path opacity="0.3" d="M288.891 235.703L346.829 105.757C348.235 102.6 345.924 99.0503 342.473 99.0503H179.919C173.891 99.0503 168.424 102.6 165.966 108.107L107.153 240.02C105.747 243.177 108.057 246.726 111.509 246.726H271.899C279.245 246.726 285.902 242.4 288.901 235.693L288.891 235.703Z" stroke="white" stroke-width="1.89" stroke-miterlimit="10"/>
<path opacity="0.2" d="M215.211 189.792H222.635L202.693 228.751H82.1074L86.9749 219.242" stroke="white" stroke-width="0.94" stroke-miterlimit="10"/>
<path opacity="0.3" d="M229.275 81.8772C244.553 68.6338 248.872 48.5933 238.923 37.1155C228.973 25.6376 208.523 27.0689 193.245 40.3123C177.967 53.5556 173.648 73.5961 183.597 85.074C193.546 96.5518 213.997 95.1205 229.275 81.8772Z" fill="#19C9D1"/>
<path d="M227.146 79.4327C240.626 67.7474 244.437 50.0644 235.658 39.9366C226.879 29.8089 208.834 31.0716 195.354 42.7569C181.873 54.4422 178.062 72.1252 186.841 82.2529C195.62 92.3807 213.665 91.118 227.146 79.4327Z" fill="#6039BB"/>
<path d="M211.769 66.7085C211.769 66.7085 197.058 69.1373 190.775 71.6153C186.507 74.1818 185.828 76.2271 184.816 79.2951C184.816 79.2951 184.806 79.3148 184.796 79.3246C188.218 85.3032 194.728 89.1087 203.223 89.1087C214.207 89.1087 225.496 82.7761 232.723 73.5721C228.79 67.8 211.759 66.7183 211.759 66.7183L211.769 66.7085Z" fill="#19C9D1"/>
<path d="M206.597 60.4448L204.06 71.163C203.745 72.5003 204.414 73.6213 205.682 73.8278C207.668 74.1523 210.835 74.1228 214.208 71.9693C215.23 71.3105 215.909 70.219 215.987 69.1767C216.341 64.1716 217.354 53.9253 217.354 53.9253L206.597 60.4546V60.4448Z" fill="#FF8D68"/>
<path d="M204.305 49.0872C204.305 49.0872 197.392 63.08 198.74 66.8363C200.293 69.4028 214.188 63.6405 216.459 59.894C218.731 56.1475 223.962 49.3527 219.891 45.1048C215.82 40.8568 209.527 42.3023 204.305 49.0971V49.0872Z" fill="#FF8D68"/>
<path d="M204.305 49.0871C204.305 49.0871 203.085 44.141 207.274 41.2304C211.454 38.3197 216.822 38.8999 218.75 41.8105C220.677 44.7212 220.844 45.1637 220.844 45.1637C220.844 45.1637 222.899 45.5963 223.588 47.7892C224.276 49.9721 219.92 55.5083 218.15 57.1111C216.38 58.7139 216.744 58.7533 216.744 58.7533L216.154 57.9863C216.154 57.9863 216.488 53.7678 217.344 51.2898C217.57 49.982 216.075 48.0842 213.44 47.6515C210.795 47.2188 209.831 49.6771 204.305 49.097V49.0871Z" fill="#9D80E3"/>
<path d="M217.786 55.4493C217.786 55.4493 218.75 53.6597 220.461 54.171C222.162 54.7413 218.769 60.0808 216.97 59.7169C215.249 59.2745 217.796 55.4493 217.796 55.4493H217.786Z" fill="#FF8D68"/>
<path d="M216.105 67.1412C216.105 67.1412 212.407 71.2221 208.779 72.3824C208.14 72.579 207.196 73.8377 207.196 73.8377L206.537 72.0874C206.537 72.0874 204.039 70.6321 204.767 68.1049L204.265 68.4884L202.928 71.7924C202.928 71.7924 201.945 74.8997 201.994 76.06L205.337 74.2114C205.337 74.2114 207.373 74.8899 208.995 74.3097C208.995 74.3097 209.684 76.6402 210.313 76.8369C210.932 77.0335 215.987 72.2742 216.754 70.6222C217.619 68.9702 217.413 67.3182 217.413 67.3182L216.105 67.1216V67.1412Z" fill="white"/>
<path opacity="0.15" d="M322.718 73.2969H252.302C250.139 73.2969 249.028 71.5466 249.814 69.3833L259.785 41.9976C260.572 39.8343 262.961 38.084 265.125 38.084H335.541C337.704 38.084 338.815 39.8343 338.028 41.9976L328.058 69.3833C327.271 71.5466 324.881 73.2969 322.718 73.2969Z" fill="#19C9D1"/>
<path d="M326.789 50.4836H266.157L267.219 47.5435H327.861L326.789 50.4836Z" fill="#19C9D1"/>
<path d="M300.17 57.3278H263.659L264.731 54.3975H301.242L300.17 57.3278Z" fill="#19C9D1"/>
<path d="M270.857 63.5227H261.407L262.479 60.5825H271.929L270.857 63.5227Z" fill="#19C9D1"/>
<path opacity="0.5" d="M255.567 85.8931C254.583 88.3219 251.81 90.2984 249.381 90.2984C246.953 90.2984 245.773 88.3219 246.756 85.8931C247.739 83.4643 250.512 81.4878 252.941 81.4878C255.37 81.4878 256.55 83.4643 255.567 85.8931Z" fill="#6039BB"/>
<path opacity="0.5" d="M270.867 85.8931C269.884 88.3219 267.111 90.2984 264.682 90.2984C262.253 90.2984 261.073 88.3219 262.057 85.8931C263.04 83.4643 265.813 81.4878 268.242 81.4878C270.671 81.4878 271.851 83.4643 270.867 85.8931Z" fill="#6039BB"/>
<path opacity="0.5" d="M286.178 85.8931C285.195 88.3219 282.422 90.2984 279.993 90.2984C277.564 90.2984 276.384 88.3219 277.367 85.8931C278.351 83.4643 281.124 81.4878 283.552 81.4878C285.981 81.4878 287.161 83.4643 286.178 85.8931Z" fill="#6039BB"/>
<path d="M301.478 85.8931C300.494 88.3219 297.721 90.2984 295.293 90.2984C292.864 90.2984 291.684 88.3219 292.667 85.8931C293.65 83.4643 296.423 81.4878 298.852 81.4878C301.281 81.4878 302.461 83.4643 301.478 85.8931Z" fill="#19C9D1"/>
<path opacity="0.2" d="M316.788 85.8931C315.805 88.3219 313.032 90.2984 310.603 90.2984C308.174 90.2984 306.994 88.3219 307.978 85.8931C308.961 83.4643 311.734 81.4878 314.163 81.4878C316.592 81.4878 317.772 83.4643 316.788 85.8931Z" fill="#6039BB"/>
<path opacity="0.2" d="M280.424 99.2861L260.994 119.484L240.865 127.468L263.678 144.214L286.61 124.646L280.424 99.2861Z" fill="#19C9D1"/>
<path opacity="0.3" d="M275.823 111.017L260.994 119.484L248.457 127.409L265.459 139.622L281.536 124.931L275.823 111.017Z" fill="#19C9D1"/>
<path d="M280.424 99.2861L260.994 119.484L240.865 127.468L263.619 144.372L286.61 124.646L280.424 99.2861Z" stroke="#6039BB" stroke-width="0.48" stroke-miterlimit="10"/>
<path d="M271.3 126.524C270.985 127.301 270.1 127.93 269.323 127.93C268.547 127.93 268.173 127.301 268.488 126.524C268.802 125.747 269.687 125.118 270.464 125.118C271.241 125.118 271.614 125.747 271.3 126.524Z" fill="#6039BB"/>
<path d="M252.193 112.59L269.392 126.209L238.702 127.783" stroke="#6039BB" stroke-width="0.48" stroke-miterlimit="10"/>
<path d="M262.342 149.072L270.012 126.21L290.249 124.174" stroke="#6039BB" stroke-width="0.48" stroke-miterlimit="10"/>
<path d="M281.556 96.4736L270.012 126.209" stroke="#6039BB" stroke-width="0.48" stroke-miterlimit="10"/>
<path opacity="0.5" d="M253.757 112.335C253.226 113.643 251.741 114.695 250.433 114.695C249.126 114.695 248.496 113.633 249.027 112.335C249.558 111.027 251.043 109.975 252.351 109.975C253.659 109.975 254.288 111.037 253.757 112.335Z" fill="#6039BB"/>
<path d="M239.843 127.793C239.312 129.101 237.827 130.153 236.519 130.153C235.212 130.153 234.582 129.091 235.113 127.793C235.644 126.485 237.129 125.433 238.437 125.433C239.745 125.433 240.374 126.495 239.843 127.793Z" fill="#19C9D1"/>
<path opacity="0.5" d="M264.574 149.436C264.043 150.744 262.558 151.796 261.25 151.796C259.942 151.796 259.313 150.734 259.844 149.436C260.375 148.128 261.86 147.076 263.167 147.076C264.475 147.076 265.105 148.138 264.574 149.436Z" fill="#6039BB"/>
<path opacity="0.5" d="M293.001 124.204C292.47 125.512 290.985 126.564 289.678 126.564C288.37 126.564 287.74 125.502 288.271 124.204C288.802 122.896 290.287 121.844 291.595 121.844C292.903 121.844 293.532 122.906 293.001 124.204Z" fill="#6039BB"/>
<path d="M284.181 95.6871C283.65 96.995 282.165 98.0471 280.857 98.0471C279.549 98.0471 278.92 96.9851 279.451 95.6871C279.982 94.3793 281.467 93.3271 282.775 93.3271C284.083 93.3271 284.712 94.3891 284.181 95.6871Z" fill="#19C9D1"/>
<path d="M230.501 115.413H171.551L176.054 104.262H235.005L230.501 115.413Z" fill="#6039BB"/>
<path opacity="0.3" d="M195.004 140.507H161.413L163.35 135.728H196.931L195.004 140.507Z" fill="#19C9D1"/>
<path opacity="0.3" d="M189.969 130.949H165.277L169.781 119.798H194.472L189.969 130.949Z" fill="#19C9D1"/>
<path d="M320.889 249.922L349.73 185.229C350.429 183.655 349.278 181.885 347.567 181.885H266.639C263.64 181.885 260.916 183.655 259.687 186.399L230.404 252.075C229.706 253.649 230.856 255.419 232.567 255.419H312.423C316.081 255.419 319.395 253.265 320.889 249.922Z" fill="#19C9D1"/>
<path d="M304.483 233.897C318.11 222.748 323.106 206.316 315.644 197.195C308.181 188.074 291.085 189.718 277.458 200.868C263.832 212.017 258.835 228.449 266.297 237.57C273.76 246.691 290.856 245.046 304.483 233.897Z" fill="#6039BB"/>
<mask id="mask0_3453_37333" style="mask-type:luminance" maskUnits="userSpaceOnUse" x="262" y="191" width="58" height="53">
<path d="M304.483 233.897C318.11 222.748 323.106 206.316 315.644 197.195C308.181 188.074 291.085 189.718 277.458 200.868C263.832 212.017 258.835 228.449 266.297 237.57C273.76 246.691 290.856 245.046 304.483 233.897Z" fill="white"/>
</mask>
<g mask="url(#mask0_3453_37333)">
<path d="M293.13 220.098C293.13 220.098 306.258 226.617 307.644 232.596C309.031 238.574 303.209 254.327 303.209 254.327H251.044C251.044 254.327 259.599 235.851 266.246 231.504C272.893 227.158 285.726 223.834 285.726 223.834L293.14 220.088L293.13 220.098Z" fill="#EA8518"/>
<path d="M287.751 215.86L283.661 224.7C283.149 225.811 283.454 226.814 284.408 227.099C285.903 227.551 288.39 227.817 291.458 226.293C292.393 225.83 293.14 224.965 293.396 224.09C294.654 219.891 297.467 211.297 297.467 211.297L287.751 215.86Z" fill="#F7C8B5"/>
<path d="M288.184 206.046C288.184 206.046 280.022 217.266 280.337 220.57C281.055 222.88 293.081 219.252 295.608 216.282C298.125 213.313 303.563 208.032 301.203 204.069C298.843 200.107 293.622 200.765 288.194 206.046H288.184Z" fill="#F7C8B5"/>
<path d="M288.528 204.394C288.528 204.394 288.4 204.571 288.233 204.836C287.761 205.633 287.053 207.246 289.02 207.354L291.635 207.491C291.635 207.491 295.834 205.102 297.486 207.629C298.715 210.166 294.713 211.71 295.047 212.978C295.382 214.247 295.215 213.962 294.644 214.67C294.074 215.378 293.622 216.499 291.734 217.344C289.846 218.19 288.351 218.052 286.551 219.036C284.742 220.019 281.261 218.898 280.897 218.052C280.052 217.344 279.57 218.898 279.029 219.881C278.488 220.865 276.826 221.15 278.429 222.418C280.032 223.687 281.212 224.247 284.005 222.556C286.797 220.865 286.876 221.012 289.698 220.304C292.51 219.596 294.605 218.18 295.687 216.43C296.768 214.68 297.102 212.428 298.007 211.582C298.912 210.736 299.413 211.582 299.02 212.565C298.627 213.549 302.452 211.72 303.366 208.77C304.281 205.82 302.678 205.957 302.511 204.266C302.353 202.575 304.271 200.608 302.226 199.064C300.18 197.52 298.253 199.487 297.525 198.504C296.798 197.52 293.622 197.383 291.075 199.487C288.538 201.601 288.39 204.591 288.39 204.591" fill="#9D80E3"/>
<path d="M297.536 211.798C297.536 211.798 298.637 210.373 299.886 210.953C301.105 211.582 297.398 215.81 296.061 215.329C294.792 214.798 297.545 211.798 297.545 211.798H297.536Z" fill="#F7C8B5"/>
<path d="M280.032 218.465C280.032 218.465 281.232 214.099 284.27 213.539C287.309 212.978 288.686 214.807 288.479 216.351C288.273 217.895 289.62 218.741 289.62 218.741C289.62 218.741 281.95 222.399 280.022 218.456L280.032 218.465Z" fill="#9D80E3"/>
</g>
<path d="M284.604 337.261L313.445 272.568C314.143 270.995 312.993 269.225 311.282 269.225H230.354C227.355 269.225 224.631 270.995 223.402 273.738L194.119 339.415C193.42 340.988 194.571 342.758 196.282 342.758H276.138C279.796 342.758 283.11 340.604 284.604 337.261Z" fill="#4DBBFF"/>
<path d="M268.3 321.149C282.225 309.756 287.33 292.962 279.702 283.639C272.074 274.317 254.602 275.995 240.677 287.389C226.752 298.782 221.647 315.576 229.275 324.899C236.903 334.221 254.375 332.542 268.3 321.149Z" fill="#6039BB"/>
<mask id="mask1_3453_37333" style="mask-type:luminance" maskUnits="userSpaceOnUse" x="225" y="277" width="59" height="54">
<path d="M268.3 321.149C282.225 309.756 287.33 292.962 279.702 283.639C272.074 274.317 254.602 275.995 240.677 287.389C226.752 298.782 221.647 315.576 229.275 324.899C236.903 334.221 254.375 332.542 268.3 321.149Z" fill="white"/>
</mask>
<g mask="url(#mask1_3453_37333)">
<path d="M261.879 296.699C261.879 296.699 265.852 294.811 266.383 297.102C266.914 299.393 265.164 301.035 265.164 301.035C265.164 301.035 268.753 300.052 269.707 303.11C270.661 306.178 267.779 307.633 268.979 308.725C270.179 309.816 272.647 312.156 269.186 316.031C265.724 319.915 260.66 324.369 254.79 321.498C248.919 318.627 250.788 304.673 250.788 304.673L252.223 300.593L261.879 296.699Z" fill="#9D80E3"/>
<path d="M258.055 284.987C258.055 284.987 249.205 285.735 246.412 291.93C243.619 298.125 249.175 298.557 249.175 298.557L258.055 284.987Z" fill="#9D80E3"/>
<path d="M200.559 327.113L201.129 328.136C201.129 328.136 207.944 336.268 214.011 341.47H226.647C233.235 335.462 242.233 324.999 242.272 324.566C242.331 323.957 250.198 315.402 248.457 311.921C246.726 308.43 244.475 308.99 244.475 308.99C244.475 308.99 241.908 309.344 239.037 312.324C236.156 315.303 221.956 337.32 221.956 337.32C221.956 337.32 220.137 334.036 216.784 331.528C213.431 329.021 203.607 323.73 203.607 323.73C203.607 323.73 204.207 319.482 204.148 318.666C204.089 317.85 201.651 314.143 200.903 314.94C200.166 315.736 201.897 319.227 201.897 319.227C201.897 319.227 199.979 326.081 200.549 327.113H200.559Z" fill="#F7C8B5"/>
<path d="M232.174 335.314C232.174 335.314 232.547 338.018 233.275 341.48H258.359C258.91 335.816 260.09 324.438 260.788 321.734C261.732 318.106 260.896 310.377 261.201 308.253C261.506 306.129 255.439 306.906 255.439 306.906L247.543 307.034L246.265 307.574C244.514 308.322 242.931 309.649 241.899 311.232C240.925 312.727 239.48 314.91 237.542 317.771C234.425 320.141 227.542 324.252 228.053 329.434C228.565 334.616 232.193 335.304 232.193 335.304L232.174 335.314Z" fill="#DB4DC0"/>
<path d="M250.178 302.225C250.178 302.225 243.167 310.898 241.239 321.813C243.53 321.115 250.483 314.723 254.583 310.839C256.314 309.197 256.471 308.302 256.156 306.62C255.999 305.795 256.727 303.494 257.7 300.868C258.339 297.23 250.188 302.225 250.188 302.225H250.178Z" fill="#F7C8B5"/>
<path d="M272.185 337.713C272.185 337.713 273.277 339.218 275.076 341.479H286.296C284.133 338.608 282.412 336.297 281.881 335.491C280.042 332.708 267.219 304.732 259.402 308.213C257.956 308.853 252.735 313.238 254.869 318.155C257.003 323.071 272.185 337.713 272.185 337.713Z" fill="#F7C8B5"/>
<path d="M249.864 290.779C248.762 292.166 245.989 295.804 244.337 299C242.892 301.802 243.885 304.359 246.57 304.644C250.424 305.057 256.314 304.103 258.242 301.891C261.113 298.606 267.269 292.795 264.771 288.281C262.342 283.896 256.816 284.348 250.857 289.707C250.493 290.042 250.159 290.405 249.864 290.779Z" fill="#F7C8B5"/>
<path d="M252.469 287.908C252.469 287.908 248.595 294.24 259.598 298.282L260.985 298.901C260.985 298.901 265.793 295.086 265.862 291.045C265.931 287.003 263.846 285.538 261.752 284.663C259.657 283.788 253.954 286.393 252.479 287.908H252.469Z" fill="#9D80E3"/>
<path d="M259.294 299.196C259.294 299.196 262.076 297.279 262.047 299.049C262.017 300.819 258.104 302.717 257.701 301.979C257.288 301.242 259.294 299.196 259.294 299.196Z" fill="#F7C8B5"/>
</g>
<path d="M196.655 283.65H107.517C104.783 283.65 103.456 281.438 104.567 278.694L110.899 263.01C112.001 260.277 115.118 258.054 117.851 258.054H206.99C209.724 258.054 211.051 260.267 209.94 263.01L203.607 278.694C202.506 281.428 199.389 283.65 196.655 283.65Z" fill="#D050FF"/>
<path opacity="0.5" d="M195.957 272.096H119.198L120.703 268.379H197.461L195.957 272.096Z" fill="white"/>
<path d="M125.788 304.585H121.54C120.792 304.585 120.428 303.975 120.723 303.218L122.444 298.97C122.749 298.223 123.605 297.613 124.352 297.613H128.6C129.347 297.613 129.711 298.223 129.416 298.97L127.695 303.218C127.39 303.966 126.535 304.585 125.788 304.585Z" fill="#19C9D1"/>
<path d="M169.368 304.585H165.12C164.372 304.585 164.009 303.975 164.304 303.218L166.024 298.97C166.329 298.223 167.185 297.613 167.932 297.613H172.18C172.927 297.613 173.291 298.223 172.996 298.97L171.275 303.218C170.971 303.966 170.115 304.585 169.368 304.585Z" fill="#19C9D1"/>
<path opacity="0.56" d="M117.694 324.635H113.446C112.699 324.635 112.335 324.025 112.63 323.268L114.351 319.02C114.655 318.273 115.511 317.663 116.258 317.663H120.506C121.254 317.663 121.617 318.273 121.322 319.02L119.602 323.268C119.297 324.016 118.441 324.635 117.694 324.635Z" fill="white"/>
<path d="M139.485 324.635H135.237C134.49 324.635 134.126 324.025 134.421 323.268L136.142 319.02C136.446 318.273 137.302 317.663 138.049 317.663H142.297C143.045 317.663 143.408 318.273 143.113 319.02L141.393 323.268C141.088 324.016 140.232 324.635 139.485 324.635Z" fill="#FF8D02"/>
<path opacity="0.56" d="M161.276 324.635H157.028C156.281 324.635 155.917 324.025 156.212 323.268L157.933 319.02C158.237 318.273 159.093 317.663 159.84 317.663H164.088C164.836 317.663 165.199 318.273 164.904 319.02L163.184 323.268C162.879 324.016 162.023 324.635 161.276 324.635Z" fill="white"/>
<path opacity="0.56" d="M178.7 324.635H174.452C173.704 324.635 173.341 324.025 173.636 323.268L175.356 319.02C175.661 318.273 176.517 317.663 177.264 317.663H181.512C182.259 317.663 182.623 318.273 182.328 319.02L180.607 323.268C180.303 324.016 179.447 324.635 178.7 324.635Z" fill="white"/>
<path opacity="0.56" d="M109.592 344.685H105.344C104.597 344.685 104.233 344.076 104.528 343.318L106.249 339.07C106.554 338.323 107.409 337.704 108.157 337.704H112.405C113.152 337.704 113.516 338.313 113.221 339.07L111.5 343.318C111.195 344.066 110.34 344.685 109.592 344.685Z" fill="white"/>
<path opacity="0.56" d="M92.1577 344.685H87.9098C87.1624 344.685 86.7986 344.076 87.0936 343.318L88.8144 339.07C89.1193 338.323 89.9748 337.704 90.7221 337.704H94.9701C95.7174 337.704 96.0812 338.313 95.7862 339.07L94.0654 343.318C93.7606 344.066 92.9051 344.685 92.1577 344.685Z" fill="white"/>
<path d="M131.382 344.685H127.134C126.387 344.685 126.023 344.076 126.318 343.318L128.039 339.07C128.344 338.323 129.199 337.704 129.947 337.704H134.195C134.942 337.704 135.306 338.313 135.011 339.07L133.29 343.318C132.985 344.066 132.13 344.685 131.382 344.685Z" fill="#19C9D1"/>
<path d="M153.172 344.685H148.924C148.177 344.685 147.813 344.076 148.108 343.318L149.829 339.07C150.134 338.323 150.989 337.704 151.737 337.704H155.985C156.732 337.704 157.096 338.313 156.801 339.07L155.08 343.318C154.775 344.066 153.92 344.685 153.172 344.685Z" fill="#FF8D02"/>
<path d="M101.489 364.725H97.2408C96.4935 364.725 96.1297 364.116 96.4247 363.359L98.1455 359.111C98.4503 358.363 99.3058 357.744 100.053 357.744H104.301C105.048 357.744 105.412 358.354 105.117 359.111L103.396 363.359C103.092 364.106 102.236 364.725 101.489 364.725Z" fill="#FF8D02"/>
<path opacity="0.2" d="M199.911 220.166H79.3252L99.2671 181.207H219.852L199.911 220.166Z" fill="white"/>
<path d="M189.791 211.007C197.22 204.446 199.095 194.432 193.979 188.639C188.863 182.847 178.694 183.47 171.265 190.031C163.837 196.592 161.962 206.606 167.077 212.398C172.193 218.191 182.362 217.568 189.791 211.007Z" fill="#6E41D6"/>
<path opacity="0.7" d="M176.448 208.583C175.946 208.583 175.494 208.396 175.209 208.012L171.118 202.555C170.548 201.798 170.853 200.559 171.807 199.801C172.76 199.044 173.989 199.044 174.56 199.801L177.618 203.882L188.553 195.131C189.506 194.373 190.736 194.373 191.306 195.131C191.876 195.888 191.571 197.127 190.618 197.884L177.962 208.012C177.49 208.396 176.939 208.583 176.438 208.583H176.448Z" fill="white"/>
<path d="M78.6068 107.083C78.6068 110.142 76.3747 112.62 73.6115 112.62C70.8484 112.62 68.6162 110.142 68.6162 107.083C68.6162 104.025 70.8484 101.547 73.6115 101.547C76.3747 101.547 78.6068 104.025 78.6068 107.083Z" stroke="#19C9D1" stroke-width="0.88" stroke-miterlimit="10"/>
<path d="M26.1858 137.006C26.1858 137.006 18.211 137.537 12.2422 145.591C6.2734 153.644 14.9267 183.174 40.5817 195.101C57.2884 201.66 58.4782 186.753 54.2991 176.31C50.12 165.867 38.0447 139.455 26.1858 137.006Z" fill="white"/>
<path d="M28.6348 430.933C28.6348 430.933 30.3655 427.216 36.8063 428.209C43.2471 429.202 43.9846 430.441 44.7319 433.656C45.4792 436.872 47.7015 440.343 49.1864 441.09C50.6712 441.838 56.1188 445.545 60.5733 446.292C65.0278 447.039 65.5293 449.763 64.5361 451.002C63.5429 452.241 46.7084 453.234 42.9914 452.733C42.9914 452.733 30.3655 452.487 27.386 451.494C24.4164 450.501 28.3792 432.181 28.625 430.942L28.6348 430.933Z" fill="#25184A"/>
<path d="M60.8975 430.933C60.8975 430.933 62.6282 427.216 69.069 428.209C75.5098 429.202 76.2473 430.441 76.9946 433.656C77.7419 436.872 79.9642 440.343 81.4491 441.09C82.9339 441.838 88.3815 445.545 92.836 446.292C97.2905 447.039 97.792 449.763 96.7988 451.002C95.8056 452.241 78.9711 453.234 75.2541 452.733C75.2541 452.733 62.6282 452.487 59.6487 451.494C56.6791 450.501 60.6419 432.181 60.8877 430.942L60.8975 430.933Z" fill="#25184A"/>
<path d="M22.6754 338.726C22.6754 338.726 20.7875 328.47 31.6237 325.028C42.4501 321.587 44.5053 326.592 47.7798 335.943C51.0543 345.295 45.0068 433.627 45.0068 433.627C45.0068 433.627 31.8105 433.932 28.6147 432.044C28.6147 432.044 19.7943 373.428 20.4531 359.15C21.1119 344.872 22.6754 338.726 22.6754 338.726Z" fill="#2B3554"/>
<path d="M73.3851 110.84C73.3851 110.84 75.922 114.272 75.922 116.062C75.922 117.851 72.4902 117.851 72.4902 117.851L73.3851 110.84Z" fill="#FF7759"/>
<path d="M61.1821 75.9121C61.1821 75.9121 68.5079 77.7902 72.6575 89.0395C76.8072 100.289 74.044 124.193 71.271 127.006C68.5079 129.818 60.1004 128.746 48.4382 124.892C36.1269 120.83 31.9576 108.028 29.7648 99.5808C25.5463 83.405 39.6177 66.7671 61.1723 75.9121H61.1821Z" fill="#FF8D68"/>
<path d="M34.8985 138.009L40.8378 116.71C40.8378 116.71 52.7262 113.239 60.1503 121.165L62.6283 124.636V138.501C62.6283 138.501 50.2482 140.979 34.8887 138.009H34.8985Z" fill="#FF8D68"/>
<path d="M18.3089 252.675C18.3089 252.675 13.8544 278.674 18.3089 308.4C22.7633 338.116 31.6821 341.086 39.8536 341.086C48.025 341.086 50.2572 317.309 51.742 306.915C53.2268 296.512 59.1759 260.856 48.025 252.685C36.8839 244.513 24.2482 243.766 18.3089 252.685V252.675Z" fill="#2B3554"/>
<path d="M49.5099 287.593C49.5099 287.593 40.5912 263.816 56.1966 253.422C71.802 243.019 83.6805 244.504 87.3975 261.594C91.1145 278.684 91.852 337.369 86.6502 349.257C81.4484 361.146 62.8733 342.571 49.5001 287.593H49.5099Z" fill="#2B3F63"/>
<path d="M31.751 137.901C31.751 137.901 33.4128 132.07 34.8976 131.578C36.3824 131.087 54.7117 129.1 64.6138 135.05C69.0682 138.521 68.5766 140.989 68.5766 140.989C68.5766 140.989 39.0079 135.315 31.751 137.901Z" fill="white"/>
<path d="M86.2081 252.675C86.2081 252.675 87.7027 256.254 86.8079 257.444C85.6181 258.634 51.9096 270.572 16.4115 261.918C15.8117 261.918 17.3064 255.95 17.3064 255.95L86.2081 252.665V252.675Z" fill="#785EE5"/>
<path d="M16.0773 198.936C15.0841 192.004 12.1145 157.823 13.1076 152.877C14.032 148.246 17.9849 139.72 26.1859 137.016C26.7562 136.829 27.356 136.662 27.9657 136.534C27.9657 136.534 58.675 134.558 80.4656 143.968C80.4656 143.968 87.929 150.163 89.3057 181.738C89.3057 181.738 88.8927 187.067 87.7028 198.395C86.513 209.733 88.3027 218.082 90.0923 229.419C91.882 240.757 95.4613 252.085 82.3339 254.475C69.8063 256.864 35.203 262.823 14.9268 256.864C10.7477 253.885 16.7164 240.157 16.7164 229.419C16.7164 218.681 16.0773 198.946 16.0773 198.946V198.936Z" fill="#8D69FF"/>
<path d="M63.6306 340.339C63.6306 340.339 62.8833 329.935 74.0342 327.713C85.1753 325.481 86.6602 330.683 88.8923 340.339C91.1245 349.995 77.9086 434.227 77.9086 434.227C77.9086 434.227 63.3258 435.063 60.3562 432.84C60.3562 432.84 56.9538 374.519 59.1762 360.399C61.4083 346.278 63.6306 340.339 63.6306 340.339Z" fill="#2B3F63"/>
<path d="M46.541 282.018C46.541 282.018 56.9446 315.451 64.7424 331.794" stroke="#2A2E59" stroke-width="1.13" stroke-miterlimit="10"/>
<path d="M67.7119 338.48C67.7119 338.48 74.0249 334.763 80.3378 338.48" stroke="#2A2E59" stroke-width="1.13" stroke-miterlimit="10"/>
<path d="M66.6006 342.571C66.6006 342.571 71.8024 339.601 80.7212 345.914" stroke="#2A2E59" stroke-width="1.13" stroke-miterlimit="10"/>
<path d="M27.5918 334.026C27.5918 334.026 31.6824 330.309 40.965 334.4" stroke="#2A2E59" stroke-width="1.13" stroke-miterlimit="10"/>
<path d="M30.5615 337.743C30.5615 337.743 36.5008 334.773 42.0763 339.228" stroke="#2A2E59" stroke-width="1.13" stroke-miterlimit="10"/>
<path d="M44.3083 343.682L42.0762 419.467" stroke="#2A2E59" stroke-width="1.13" stroke-miterlimit="10"/>
<path d="M75.0176 280.159C75.0176 280.159 83.4349 285.115 86.906 277.189" stroke="#2A2E59" stroke-width="1.13" stroke-miterlimit="10"/>
<path d="M83.4355 281.152C83.4355 281.152 87.3984 311.862 86.4052 332.167" stroke="#2A2E59" stroke-width="1.13" stroke-miterlimit="10"/>
<path d="M57.8682 122.099C57.8682 122.099 60.4642 128.786 69.1961 127.675" stroke="#E66657" stroke-width="1.13" stroke-miterlimit="10"/>
<path d="M69.0788 80.8287C69.0788 80.8287 73.3072 86.65 73.5727 90.0818C73.8382 93.5235 68.2824 96.9553 67.4859 99.0694C66.6894 101.184 68.5085 103.848 67.7219 105.166C66.9352 106.484 66.6795 109.188 66.6795 109.188L66.9549 112.187C67.0532 113.279 66.3157 114.272 65.234 114.488L64.5949 114.616C63.6804 114.793 62.7757 114.311 62.4316 113.446C61.4777 111.056 59.5111 106.592 57.9771 106.208C55.8629 105.677 53.7488 109.385 52.9523 111.233C52.5098 112.276 51.379 115.098 50.4841 117.359C49.6975 119.336 47.8488 120.683 45.7248 120.83C43.4337 120.998 40.6902 121.106 39.6872 120.821C37.8385 120.29 28.3494 102.767 28.0839 94.3003C27.8184 85.8339 33.6397 77.3772 39.7167 74.7321C45.8035 72.0869 57.7018 69.7073 69.069 80.8189L69.0788 80.8287Z" fill="#3E2A7C"/>
<path opacity="0.4" d="M26.2354 154.352C26.2354 156.732 36.2063 192.633 34.6133 198.986C33.0301 205.328 28.6445 249.696 28.6445 249.696" stroke="#6039BB" stroke-width="1.13" stroke-miterlimit="10"/>
<path d="M53.8463 69.3141C53.8463 69.3141 59.6577 69.5403 61.6736 66.6296C63.6894 63.719 70.1695 63.0503 74.8698 67.7506C79.5701 72.4509 79.344 81.173 75.3123 84.3C75.3123 84.3 80.0126 83.4052 80.6813 86.7583C81.3499 90.1115 75.5385 95.2543 68.606 96.8276C68.606 96.8276 57.4256 93.7006 54.0626 95.7066C50.7095 97.7224 28.1126 95.4805 28.1126 95.4805C28.1126 95.4805 23.196 91.0063 24.5333 86.9845C25.8805 82.9627 27.2178 87.2107 27.2178 87.2107C27.2178 87.2107 26.0968 81.6155 33.4816 73.5621C40.8664 65.5086 51.152 69.9828 53.8365 69.3141H53.8463Z" fill="#3E2A7C"/>
<path d="M163.685 189.211L179.565 189.88C179.565 189.88 179.123 191.443 176.655 191.896C174.196 192.338 165.022 193.459 165.022 193.459L163.675 189.211H163.685Z" fill="#EB7754"/>
<path d="M165.7 192.574C165.7 192.574 171.069 191.679 172.19 191.906C173.311 192.132 174.422 198.612 174.422 198.612L170.174 203.086C170.174 203.086 168.611 202.417 170.174 199.959L171.069 198.395L164.579 195.937L165.7 192.584V192.574Z" fill="#FF8D68"/>
<path d="M150.262 196.37L156.968 195.475C156.968 195.475 162.563 189.88 163.674 189.211C164.795 188.543 170.39 197.265 171.059 198.386C171.059 199.281 167.706 202.191 164.353 202.634C161 203.076 159.879 202.181 159.879 202.181L152.494 205.092L150.252 196.37H150.262Z" fill="#FF8D68"/>
<path d="M80.4655 143.959C80.4655 143.959 65.4796 143.801 65.9319 162.15C66.3744 180.489 97.6934 210.471 106.199 214.05C114.695 217.629 150.941 207.786 154.068 205.997C157.204 204.207 156.31 196.606 151.383 194.816L114.253 193.027C114.253 193.027 90.9773 145.463 80.4655 143.968V143.959Z" fill="white"/>
<path d="M114.843 196.006C114.843 196.006 119.317 200.775 118.127 207.039" stroke="#A6D0F4" stroke-width="0.91" stroke-miterlimit="10"/>
<path d="M117.232 195.111C117.232 195.111 124.686 197.501 125.286 205.554" stroke="#A6D0F4" stroke-width="0.91" stroke-miterlimit="10"/>
<path d="M78.6067 107.084H63.0996" stroke="#19C9D1" stroke-width="0.88" stroke-miterlimit="10"/>
<path d="M64.929 108.923C64.929 108.923 63.8768 104.35 60.0025 106.464C56.1381 108.578 60.7105 119.474 63.867 118.766C67.0235 118.058 65.6272 110.683 64.9192 108.923H64.929Z" fill="#FF7759"/>
<path opacity="0.1" d="M32.5967 87.427C32.5967 87.427 43.3346 84.9687 50.9357 93.0221" stroke="white" stroke-width="0.91" stroke-miterlimit="10"/>
<path opacity="0.1" d="M34.0127 85.7948C34.0127 85.7948 38.6343 80.8782 46.5403 82.9628" stroke="white" stroke-width="0.91" stroke-miterlimit="10"/>
<path opacity="0.1" d="M32.9707 89.5215C32.9707 89.5215 36.255 89.8165 38.4872 93.5433" stroke="white" stroke-width="0.91" stroke-miterlimit="10"/>
<path opacity="0.1" d="M65.4795 68.1934C65.4795 68.1934 76.2174 71.5465 73.7591 81.3896" stroke="white" stroke-width="0.91" stroke-miterlimit="10"/>
<path style="mix-blend-mode:multiply" d="M125.071 60.5512C142.231 60.5512 156.141 54.0717 156.141 46.0788C156.141 38.0859 142.231 31.6064 125.071 31.6064C107.911 31.6064 94 38.0859 94 46.0788C94 54.0717 107.911 60.5512 125.071 60.5512Z" fill="url(#paint2_radial_3453_37333)"/>
<path d="M144.921 37.5679H97.5957V44.2484C97.5957 44.2484 97.5957 44.3791 97.5957 44.4445C97.5957 52.0533 108.188 58.224 121.252 58.224C134.316 58.224 144.908 52.0533 144.908 44.4445C144.908 44.3791 144.908 44.3138 144.908 44.2484V37.5679H144.921Z" fill="url(#paint3_linear_3453_37333)"/>
<g style="mix-blend-mode:multiply">
<path d="M121.264 56.7336C108.201 56.7336 97.6084 50.5629 97.6084 42.9541V44.2353C97.6084 44.2353 97.6084 44.366 97.6084 44.4314C97.6084 52.0402 108.201 58.2109 121.264 58.2109C134.328 58.2109 144.921 52.0402 144.921 44.4314C144.921 44.366 144.921 44.3006 144.921 44.2353V42.9541C144.921 50.5629 134.328 56.7336 121.264 56.7336Z" fill="url(#paint4_linear_3453_37333)"/>
</g>
<g style="mix-blend-mode:multiply">
<path d="M128.51 57.5444C128.732 57.5052 128.954 57.4529 129.177 57.4006V39.9082H128.51V57.5444Z" fill="#FFE585"/>
<path d="M131.491 56.8384C131.714 56.773 131.936 56.7207 132.158 56.6554V39.9082H131.491V56.8384Z" fill="#FFE585"/>
<path d="M134.46 55.871C134.682 55.7795 134.905 55.6749 135.127 55.5834V39.9082H134.46V55.871Z" fill="#FFE585"/>
<path d="M125.541 57.9627C125.763 57.9366 125.986 57.9235 126.208 57.8974V39.9082H125.541V57.9758V57.9627Z" fill="#FFE585"/>
<path d="M140.41 52.5111C140.632 52.3281 140.868 52.145 141.077 51.962V39.9082H140.41V52.5111Z" fill="#FFE585"/>
<path d="M143.379 49.2949C143.627 48.9157 143.85 48.5235 144.046 48.1182V39.895H143.379V49.2949Z" fill="#FFE585"/>
<path d="M137.429 54.4721C137.651 54.3544 137.873 54.2368 138.096 54.1061V39.9082H137.429V54.4721Z" fill="#FFE585"/>
<path d="M122.573 58.1719C122.796 58.1719 123.018 58.1719 123.24 58.1458V39.9082H122.573V58.1719Z" fill="#FFE585"/>
<path d="M119.592 58.1588C119.814 58.1588 120.036 58.1719 120.259 58.1719V39.9082H119.592V58.1588Z" fill="#FFE585"/>
<path d="M113.654 57.466C113.877 57.5052 114.086 57.5574 114.321 57.5967V39.9082H113.654V57.466Z" fill="#FFE585"/>
<path d="M116.623 57.9364C116.845 57.9626 117.068 57.9757 117.29 57.9887V39.895H116.623V57.9234V57.9364Z" fill="#FFE585"/>
<path d="M110.673 56.7338C110.895 56.7992 111.117 56.8646 111.34 56.9168V39.9082H110.673V56.7338Z" fill="#FFE585"/>
<path d="M98.7861 48.7198C98.9823 49.0728 99.2046 49.4257 99.4531 49.7787V39.9082H98.7861V48.7198Z" fill="#FFE585"/>
<path d="M101.755 52.2236C101.964 52.4066 102.199 52.5635 102.422 52.7465V39.9214H101.755V52.2366V52.2236Z" fill="#FFE585"/>
<path d="M107.705 55.7141C107.927 55.8056 108.15 55.884 108.372 55.9756V39.9082H107.705V55.7141Z" fill="#FFE585"/>
<path d="M104.736 54.276C104.946 54.3937 105.181 54.5113 105.403 54.629V39.9082H104.736V54.276Z" fill="#FFE585"/>
</g>
<path d="M121.264 51.4388C134.329 51.4388 144.921 45.2695 144.921 37.6593C144.921 30.0491 134.329 23.8799 121.264 23.8799C108.2 23.8799 97.6084 30.0491 97.6084 37.6593C97.6084 45.2695 108.2 51.4388 121.264 51.4388Z" fill="url(#paint5_linear_3453_37333)"/>
<path style="mix-blend-mode:screen" d="M121.264 51.0726C108.475 51.0726 98.0792 45.1634 97.6476 37.7769C97.6476 37.9337 97.6084 38.0906 97.6084 38.2606C97.6084 45.8693 108.201 52.04 121.264 52.04C134.328 52.04 144.921 45.8693 144.921 38.2606C144.921 38.1037 144.894 37.9468 144.881 37.7769C144.45 45.1634 134.054 51.0726 121.264 51.0726Z" fill="url(#paint6_radial_3453_37333)"/>
<path d="M121.264 47.9612C131.036 47.9612 138.957 43.3489 138.957 37.6593C138.957 31.9697 131.036 27.3574 121.264 27.3574C111.493 27.3574 103.571 31.9697 103.571 37.6593C103.571 43.3489 111.493 47.9612 121.264 47.9612Z" fill="url(#paint7_linear_3453_37333)"/>
<path style="mix-blend-mode:screen" d="M121.853 27.8803C131.308 27.8803 138.997 32.1945 139.494 37.62C139.507 37.437 139.546 37.254 139.546 37.071C139.546 31.384 131.622 26.769 121.853 26.769C112.085 26.769 104.16 31.384 104.16 37.071C104.16 37.254 104.186 37.437 104.212 37.62C104.709 32.1945 112.399 27.8803 121.853 27.8803Z" fill="url(#paint8_radial_3453_37333)"/>
<path d="M121.264 28.4686C130.719 28.4686 138.408 32.7829 138.905 38.2084C138.918 38.0254 138.957 37.8423 138.957 37.6593C138.957 31.9723 131.033 27.3574 121.264 27.3574C111.496 27.3574 103.571 31.9723 103.571 37.6593C103.571 37.8423 103.597 38.0254 103.624 38.2084C104.121 32.7829 111.81 28.4686 121.264 28.4686Z" fill="url(#paint9_linear_3453_37333)"/>
<path style="mix-blend-mode:color-dodge" d="M133.688 24.3898C139.01 26.1939 142.593 29.8022 141.691 32.43C140.789 35.0578 135.754 35.7245 130.445 33.9204C125.123 32.1162 121.539 28.508 122.442 25.8802C123.344 23.2524 128.379 22.5856 133.688 24.3898Z" fill="url(#paint10_radial_3453_37333)"/>
<g style="mix-blend-mode:multiply">
<path d="M122.625 34.4301C122.18 34.5085 121.735 34.6131 121.265 34.7439C120.859 34.8485 120.428 34.9661 119.957 35.123C119.486 35.2799 119.055 35.4498 118.623 35.6329L120.049 36.4565C120.192 36.4042 120.349 36.3388 120.506 36.2865C120.676 36.2343 120.846 36.1689 121.029 36.1035C121.84 35.8159 122.599 35.5806 123.305 35.3845C124.011 35.1884 124.691 35.0576 125.319 34.9923C125.946 34.9269 126.548 34.94 127.11 35.0445C127.672 35.1361 128.222 35.3453 128.745 35.646C129.372 35.9989 129.765 36.3912 129.922 36.7964C130.092 37.2017 130.092 37.62 129.922 38.0384C129.752 38.4567 129.464 38.8751 129.032 39.2804C128.601 39.6857 128.104 40.0779 127.529 40.457L129.438 41.5552L127.842 42.4703L125.894 41.346C124.913 41.8428 123.867 42.2742 122.742 42.6664C121.618 43.0586 120.532 43.3593 119.486 43.5815L118.453 41.0584C118.989 40.9538 119.539 40.8361 120.114 40.6792C120.598 40.5616 121.134 40.4047 121.722 40.2217C122.311 40.0387 122.873 39.8164 123.396 39.568L122.01 38.7705C121.513 38.9535 121.003 39.1366 120.48 39.3065C119.696 39.568 118.976 39.7772 118.322 39.921C117.682 40.0648 117.08 40.1563 116.544 40.1825C116.008 40.2086 115.511 40.1694 115.053 40.0648C114.596 39.9602 114.164 39.7902 113.759 39.5549C113.196 39.2281 112.804 38.862 112.608 38.4829C112.412 38.0907 112.359 37.6854 112.451 37.2671C112.542 36.8487 112.778 36.4304 113.131 35.9989C113.497 35.5675 113.955 35.1622 114.53 34.77L112.935 33.8549L114.53 32.9397L116.139 33.8679C116.622 33.6457 117.106 33.4365 117.603 33.2404C118.1 33.0574 118.584 32.8744 119.081 32.7306C119.565 32.5737 120.036 32.4429 120.493 32.3122C120.951 32.1945 121.369 32.0769 121.749 31.9854L122.625 34.417V34.4301ZM117.289 36.9664C117.446 37.0579 117.642 37.0971 117.878 37.071C118.113 37.0579 118.401 36.9925 118.754 36.8879L117.551 36.195C117.08 36.5349 116.989 36.7833 117.289 36.9664ZM124.887 38.2345C124.743 38.143 124.534 38.1169 124.259 38.143C123.985 38.1691 123.684 38.2345 123.331 38.3391L124.495 39.0189C124.795 38.8228 124.966 38.6659 125.018 38.5352C125.07 38.4045 125.018 38.3129 124.887 38.2345Z" fill="#FF9E6E"/>
</g>
<path d="M122.625 33.8417C122.18 33.9202 121.735 34.0247 121.265 34.1555C120.859 34.2601 120.428 34.3777 119.957 34.5346C119.486 34.6915 119.055 34.8614 118.623 35.0445L120.049 35.8681C120.192 35.8158 120.349 35.7504 120.506 35.6981C120.676 35.6458 120.846 35.5805 121.029 35.5151C121.84 35.2275 122.599 34.9922 123.305 34.7961C124.011 34.5999 124.691 34.4692 125.319 34.4039C125.946 34.3385 126.548 34.3516 127.11 34.4562C127.672 34.5477 128.222 34.7568 128.745 35.0575C129.372 35.4105 129.765 35.8027 129.922 36.208C130.092 36.6133 130.092 37.0317 129.922 37.45C129.752 37.8684 129.464 38.2867 129.032 38.692C128.601 39.0972 128.104 39.4894 127.529 39.8686L129.438 40.9667L127.842 41.8819L125.894 40.7576C124.913 41.2544 123.867 41.6858 122.742 42.078C121.618 42.4702 120.532 42.7709 119.486 42.9932L118.453 40.47C118.989 40.3654 119.539 40.2477 120.114 40.0908C120.598 39.9732 121.134 39.8163 121.722 39.6333C122.311 39.4502 122.873 39.228 123.396 38.9796L122.01 38.1821C121.513 38.3652 121.003 38.5481 120.48 38.7181C119.696 38.9796 118.976 39.1888 118.322 39.3326C117.682 39.4764 117.08 39.5679 116.544 39.594C116.008 39.6202 115.511 39.581 115.053 39.4764C114.596 39.3718 114.164 39.2018 113.759 38.9665C113.196 38.6397 112.804 38.2736 112.608 37.8945C112.412 37.5023 112.359 37.097 112.451 36.6786C112.542 36.2603 112.778 35.8419 113.131 35.4105C113.497 34.9791 113.955 34.5738 114.53 34.1816L112.935 33.2665L114.53 32.3513L116.139 33.2796C116.622 33.0573 117.106 32.8481 117.603 32.652C118.1 32.469 118.584 32.299 119.081 32.1421C119.565 31.9853 120.036 31.8545 120.493 31.7238C120.951 31.6061 121.369 31.4885 121.749 31.397L122.625 33.8286V33.8417ZM117.289 36.378C117.446 36.4695 117.642 36.5087 117.878 36.4825C118.113 36.4695 118.401 36.4041 118.754 36.2995L117.551 35.6066C117.08 35.9466 116.989 36.1949 117.289 36.378ZM124.887 37.6461C124.743 37.5546 124.534 37.5284 124.259 37.5546C123.985 37.5807 123.684 37.6461 123.331 37.7507L124.495 38.4305C124.795 38.2344 124.966 38.0775 125.018 37.9468C125.07 37.816 125.018 37.7245 124.887 37.6461Z" fill="#FFE585"/>
<path d="M144.921 29.606H97.5957V36.2865C97.5957 36.2865 97.5957 36.4172 97.5957 36.4826C97.5957 44.0914 108.188 50.2621 121.252 50.2621C134.316 50.2621 144.908 44.0914 144.908 36.4826C144.908 36.4172 144.908 36.3519 144.908 36.2865V29.606H144.921Z" fill="url(#paint11_linear_3453_37333)"/>
<g style="mix-blend-mode:multiply">
<path d="M121.264 48.7716C108.201 48.7716 97.6084 42.601 97.6084 34.9922V36.2734C97.6084 36.2734 97.6084 36.4041 97.6084 36.4695C97.6084 44.0783 108.201 50.2489 121.264 50.2489C134.328 50.2489 144.921 44.0783 144.921 36.4695C144.921 36.4041 144.921 36.3387 144.921 36.2734V34.9922C144.921 42.601 134.328 48.7716 121.264 48.7716Z" fill="url(#paint12_linear_3453_37333)"/>
</g>
<g style="mix-blend-mode:multiply">
<path d="M128.51 49.5693C128.732 49.53 128.954 49.4777 129.177 49.4254V31.9331H128.51V49.5693Z" fill="#FFE585"/>
<path d="M131.491 48.8765C131.714 48.8111 131.936 48.7588 132.158 48.6934V31.9463H131.491V48.8765Z" fill="#FFE585"/>
<path d="M134.46 47.8958C134.682 47.8043 134.905 47.6997 135.127 47.6082V31.9331H134.46V47.8958Z" fill="#FFE585"/>
<path d="M125.541 50.0008C125.763 49.9746 125.986 49.9616 126.208 49.9354V31.9463H125.541V50.0139V50.0008Z" fill="#FFE585"/>
<path d="M140.41 44.5359C140.632 44.3529 140.868 44.1699 141.077 43.9869V31.9331H140.41V44.5359Z" fill="#FFE585"/>
<path d="M143.379 41.3329C143.627 40.9538 143.85 40.5616 144.046 40.1563V31.9331H143.379V41.3329Z" fill="#FFE585"/>
<path d="M137.429 46.5102C137.651 46.3925 137.873 46.2749 138.096 46.1441V31.9463H137.429V46.5102Z" fill="#FFE585"/>
<path d="M122.573 50.1969C122.796 50.1969 123.018 50.1969 123.24 50.1838V31.9463H122.573V50.21V50.1969Z" fill="#FFE585"/>
<path d="M119.592 50.1969C119.814 50.1969 120.036 50.21 120.259 50.21V31.9463H119.592V50.1969Z" fill="#FFE585"/>
<path d="M113.654 49.4908C113.877 49.53 114.086 49.5823 114.321 49.6216V31.9331H113.654V49.4908Z" fill="#FFE585"/>
<path d="M116.623 49.9745C116.845 50.0007 117.068 50.0138 117.29 50.0268V31.9331H116.623V49.9614V49.9745Z" fill="#FFE585"/>
<path d="M110.673 48.7719C110.895 48.8373 111.117 48.9026 111.34 48.9549V31.9463H110.673V48.7719Z" fill="#FFE585"/>
<path d="M98.7861 40.7579C98.9823 41.1108 99.2046 41.4638 99.4531 41.8168V31.9463H98.7861V40.7579Z" fill="#FFE585"/>
<path d="M101.755 44.2616C101.964 44.4447 102.199 44.6016 102.422 44.7846V31.9595H101.755V44.2747V44.2616Z" fill="#FFE585"/>
<path d="M107.705 47.739C107.927 47.8305 108.15 47.9089 108.372 48.0004V31.9331H107.705V47.739Z" fill="#FFE585"/>
<path d="M104.736 46.3141C104.946 46.4318 105.181 46.5494 105.403 46.6671V31.9463H104.736V46.3141Z" fill="#FFE585"/>
</g>
<path d="M121.264 43.4769C134.329 43.4769 144.921 37.3076 144.921 29.6974C144.921 22.0872 134.329 15.918 121.264 15.918C108.2 15.918 97.6084 22.0872 97.6084 29.6974C97.6084 37.3076 108.2 43.4769 121.264 43.4769Z" fill="url(#paint13_linear_3453_37333)"/>
<path style="mix-blend-mode:screen" d="M121.264 43.098C108.475 43.098 98.0792 37.1888 97.6476 29.8022C97.6476 29.9591 97.6084 30.116 97.6084 30.286C97.6084 37.8947 108.201 44.0654 121.264 44.0654C134.328 44.0654 144.921 37.8947 144.921 30.286C144.921 30.1291 144.894 29.9722 144.881 29.8022C144.45 37.1888 134.054 43.098 121.264 43.098Z" fill="url(#paint14_radial_3453_37333)"/>
<path d="M121.264 39.9994C131.036 39.9994 138.957 35.387 138.957 29.6974C138.957 24.0078 131.036 19.3955 121.264 19.3955C111.493 19.3955 103.571 24.0078 103.571 29.6974C103.571 35.387 111.493 39.9994 121.264 39.9994Z" fill="url(#paint15_linear_3453_37333)"/>
<path style="mix-blend-mode:screen" d="M121.853 19.9184C131.308 19.9184 138.997 24.2326 139.494 29.6581C139.507 29.4751 139.546 29.2921 139.546 29.1091C139.546 23.4221 131.622 18.8071 121.853 18.8071C112.085 18.8071 104.16 23.4221 104.16 29.1091C104.16 29.2921 104.186 29.4751 104.212 29.6581C104.709 24.2326 112.399 19.9184 121.853 19.9184Z" fill="url(#paint16_radial_3453_37333)"/>
<path d="M121.264 20.5068C130.719 20.5068 138.408 24.821 138.905 30.2465C138.918 30.0635 138.957 29.8805 138.957 29.6974C138.957 24.0105 131.033 19.3955 121.264 19.3955C111.496 19.3955 103.571 24.0105 103.571 29.6974C103.571 29.8805 103.597 30.0635 103.624 30.2465C104.121 24.821 111.81 20.5068 121.264 20.5068Z" fill="url(#paint17_linear_3453_37333)"/>
<path style="mix-blend-mode:color-dodge" d="M133.688 16.4279C139.01 18.232 142.593 21.8403 141.691 24.4681C140.789 27.0959 135.754 27.7626 130.445 25.9585C125.123 24.1543 121.539 20.5461 122.442 17.9183C123.344 15.2905 128.379 14.6237 133.688 16.4279Z" fill="url(#paint18_radial_3453_37333)"/>
<g style="mix-blend-mode:multiply">
<path d="M122.625 26.4555C122.18 26.534 121.735 26.6385 121.265 26.7693C120.859 26.8739 120.428 26.9915 119.957 27.1484C119.486 27.3053 119.055 27.4752 118.623 27.6583L120.049 28.4819C120.192 28.4296 120.349 28.3642 120.506 28.3119C120.676 28.2596 120.846 28.1943 121.029 28.1289C121.84 27.8413 122.599 27.606 123.305 27.4099C124.011 27.2138 124.691 27.083 125.319 27.0177C125.946 26.9523 126.548 26.9654 127.11 27.07C127.672 27.1615 128.222 27.3707 128.745 27.6713C129.372 28.0243 129.765 28.4165 129.922 28.8218C130.092 29.2271 130.092 29.6454 129.922 30.0638C129.752 30.4821 129.464 30.9005 129.032 31.3058C128.601 31.7111 128.104 32.1033 127.529 32.4824L129.438 33.5806L127.842 34.4957L125.894 33.3714C124.913 33.8682 123.867 34.2996 122.742 34.6918C121.618 35.084 120.532 35.3847 119.486 35.607L118.453 33.0838C118.989 32.9792 119.539 32.8615 120.114 32.7047C120.598 32.587 121.134 32.4301 121.722 32.2471C122.311 32.064 122.873 31.8418 123.396 31.5934L122.01 30.7959C121.513 30.9789 121.003 31.162 120.48 31.3319C119.696 31.5934 118.976 31.8026 118.322 31.9464C117.682 32.0902 117.08 32.1817 116.544 32.2079C116.008 32.234 115.511 32.1948 115.053 32.0902C114.596 31.9856 114.164 31.8156 113.759 31.5803C113.196 31.2535 112.804 30.8874 112.608 30.5083C112.412 30.1161 112.359 29.7108 112.451 29.2924C112.542 28.8741 112.778 28.4557 113.131 28.0243C113.497 27.5929 113.955 27.1876 114.53 26.7954L112.935 25.8803L114.53 24.9651L116.139 25.8933C116.622 25.6711 117.106 25.4619 117.603 25.2658C118.1 25.0828 118.584 24.8998 119.081 24.7559C119.565 24.5991 120.036 24.4683 120.493 24.3376C120.951 24.2199 121.369 24.1023 121.749 24.0107L122.625 26.4424V26.4555ZM117.289 28.9918C117.446 29.0833 117.642 29.1225 117.878 29.0964C118.113 29.0833 118.401 29.0179 118.754 28.9133L117.551 28.2204C117.08 28.5603 116.989 28.8088 117.289 28.9918ZM124.887 30.2599C124.743 30.1684 124.534 30.1422 124.259 30.1684C123.985 30.1945 123.684 30.2599 123.331 30.3645L124.495 31.0443C124.795 30.8482 124.966 30.6913 125.018 30.5606C125.07 30.4298 125.018 30.3384 124.887 30.2599Z" fill="#FF9E6E"/>
</g>
<path d="M122.625 25.8671C122.18 25.9455 121.735 26.0501 121.265 26.1809C120.859 26.2854 120.428 26.4031 119.957 26.56C119.486 26.7169 119.055 26.8869 118.623 27.0699L120.049 27.8935C120.192 27.8412 120.349 27.7759 120.506 27.7236C120.676 27.6713 120.846 27.6059 121.029 27.5405C121.84 27.2529 122.599 27.0176 123.305 26.8215C124.011 26.6254 124.691 26.4946 125.319 26.4293C125.946 26.3639 126.548 26.377 127.11 26.4816C127.672 26.5731 128.222 26.7822 128.745 27.0829C129.372 27.4359 129.765 27.8281 129.922 28.2334C130.092 28.6387 130.092 29.0571 129.922 29.4754C129.752 29.8938 129.464 30.3121 129.032 30.7174C128.601 31.1226 128.104 31.5149 127.529 31.894L129.438 32.9922L127.842 33.9073L125.894 32.783C124.913 33.2798 123.867 33.7112 122.742 34.1034C121.618 34.4956 120.532 34.7963 119.486 35.0186L118.453 32.4954C118.989 32.3908 119.539 32.2731 120.114 32.1162C120.598 31.9986 121.134 31.8417 121.722 31.6587C122.311 31.4756 122.873 31.2534 123.396 31.005L122.01 30.2075C121.513 30.3905 121.003 30.5736 120.48 30.7435C119.696 31.005 118.976 31.2142 118.322 31.358C117.682 31.5018 117.08 31.5933 116.544 31.6194C116.008 31.6456 115.511 31.6194 115.053 31.5018C114.596 31.3972 114.164 31.2273 113.759 30.9919C113.196 30.6651 112.804 30.299 112.608 29.9199C112.412 29.5277 112.359 29.1224 112.451 28.7041C112.542 28.2857 112.778 27.8674 113.131 27.4359C113.497 27.0045 113.955 26.5992 114.53 26.207L112.935 25.2919L114.53 24.3767L116.139 25.305C116.622 25.0827 117.106 24.8735 117.603 24.6774C118.1 24.4944 118.584 24.3244 119.081 24.1676C119.565 24.0107 120.036 23.8799 120.493 23.7492C120.951 23.6315 121.369 23.5139 121.749 23.4224L122.625 25.854V25.8671ZM117.289 28.4034C117.446 28.4949 117.642 28.5341 117.878 28.5079C118.113 28.4949 118.401 28.4295 118.754 28.3249L117.551 27.632C117.08 27.9719 116.989 28.2203 117.289 28.4034ZM124.887 29.6715C124.743 29.58 124.534 29.5538 124.259 29.58C123.985 29.6061 123.684 29.6715 123.331 29.7761L124.495 30.4559C124.795 30.2598 124.966 30.1029 125.018 29.9722C125.07 29.8415 125.018 29.7499 124.887 29.6715Z" fill="#FFE585"/>
<path d="M144.921 21.9844H97.5957V28.665C97.5957 28.665 97.5957 28.7957 97.5957 28.8611C97.5957 36.4698 108.188 42.6405 121.252 42.6405C134.316 42.6405 144.908 36.4698 144.908 28.8611C144.908 28.7957 144.908 28.7303 144.908 28.665V21.9844H144.921Z" fill="url(#paint19_linear_3453_37333)"/>
<g style="mix-blend-mode:multiply">
<path d="M121.264 41.1501C108.201 41.1501 97.6084 34.9794 97.6084 27.3706V28.6518C97.6084 28.6518 97.6084 28.7826 97.6084 28.8479C97.6084 36.4567 108.201 42.6274 121.264 42.6274C134.328 42.6274 144.921 36.4567 144.921 28.8479C144.921 28.7826 144.921 28.7172 144.921 28.6518V27.3706C144.921 34.9794 134.328 41.1501 121.264 41.1501Z" fill="url(#paint20_linear_3453_37333)"/>
</g>
<g style="mix-blend-mode:multiply">
<path d="M128.51 41.9609C128.732 41.9216 128.954 41.8694 129.177 41.8171V24.3247H128.51V41.9609Z" fill="#FFE585"/>
<path d="M131.491 41.2549C131.714 41.1895 131.936 41.1372 132.158 41.0719V24.3247H131.491V41.2549Z" fill="#FFE585"/>
<path d="M134.46 40.2874C134.682 40.1959 134.905 40.0913 135.127 39.9998V24.3247H134.46V40.2874Z" fill="#FFE585"/>
<path d="M125.541 42.3792C125.763 42.3531 125.986 42.34 126.208 42.3138V24.3247H125.541V42.3923V42.3792Z" fill="#FFE585"/>
<path d="M140.41 36.9275C140.632 36.7445 140.868 36.5615 141.077 36.3785V24.3247H140.41V36.9275Z" fill="#FFE585"/>
<path d="M143.379 33.7114C143.627 33.3322 143.85 32.94 144.046 32.5348V24.3115H143.379V33.7114Z" fill="#FFE585"/>
<path d="M137.429 38.8886C137.651 38.7709 137.873 38.6533 138.096 38.5225V24.3247H137.429V38.8886Z" fill="#FFE585"/>
<path d="M122.573 42.5885C122.796 42.5885 123.018 42.5885 123.24 42.5754V24.3379H122.573V42.6016V42.5885Z" fill="#FFE585"/>
<path d="M119.592 42.5753C119.814 42.5753 120.036 42.5884 120.259 42.5884V24.3247H119.592V42.5753Z" fill="#FFE585"/>
<path d="M113.654 41.8824C113.877 41.9216 114.086 41.9739 114.321 42.0132V24.3247H113.654V41.8824Z" fill="#FFE585"/>
<path d="M116.623 42.353C116.845 42.3791 117.068 42.3922 117.29 42.4052V24.3115H116.623V42.3399V42.353Z" fill="#FFE585"/>
<path d="M110.673 41.1503C110.895 41.2157 111.117 41.281 111.34 41.3333V24.3247H110.673V41.1503Z" fill="#FFE585"/>
<path d="M98.7861 33.1362C98.9823 33.4892 99.2046 33.8422 99.4531 34.1952V24.3247H98.7861V33.1362Z" fill="#FFE585"/>
<path d="M101.755 36.6399C101.964 36.823 102.199 36.9799 102.422 37.1498V24.3247H101.755V36.6399Z" fill="#FFE585"/>
<path d="M107.705 40.1306C107.927 40.2221 108.15 40.3005 108.372 40.3921V24.3247H107.705V40.1306Z" fill="#FFE585"/>
<path d="M104.736 38.6925C104.946 38.8101 105.181 38.9278 105.403 39.0454V24.3247H104.736V38.6925Z" fill="#FFE585"/>
</g>
<path d="M121.264 35.8554C134.329 35.8554 144.921 29.6861 144.921 22.0759C144.921 14.4657 134.329 8.29639 121.264 8.29639C108.2 8.29639 97.6084 14.4657 97.6084 22.0759C97.6084 29.6861 108.2 35.8554 121.264 35.8554Z" fill="url(#paint21_linear_3453_37333)"/>
<path style="mix-blend-mode:screen" d="M121.264 35.4891C108.475 35.4891 98.0792 29.5799 97.6476 22.1934C97.6476 22.3502 97.6084 22.5071 97.6084 22.6771C97.6084 30.2859 108.201 36.4566 121.264 36.4566C134.328 36.4566 144.921 30.2859 144.921 22.6771C144.921 22.5202 144.894 22.3633 144.881 22.1934C144.45 29.5799 134.054 35.4891 121.264 35.4891Z" fill="url(#paint22_radial_3453_37333)"/>
<path d="M121.264 32.3778C131.036 32.3778 138.957 27.7654 138.957 22.0759C138.957 16.3863 131.036 11.7739 121.264 11.7739C111.493 11.7739 103.571 16.3863 103.571 22.0759C103.571 27.7654 111.493 32.3778 121.264 32.3778Z" fill="url(#paint23_linear_3453_37333)"/>
<path style="mix-blend-mode:screen" d="M121.853 12.2968C131.308 12.2968 138.997 16.6111 139.494 22.0366C139.507 21.8536 139.546 21.6705 139.546 21.4875C139.546 15.8005 131.622 11.1855 121.853 11.1855C112.085 11.1855 104.16 15.8005 104.16 21.4875C104.16 21.6705 104.186 21.8536 104.212 22.0366C104.709 16.6111 112.399 12.2968 121.853 12.2968Z" fill="url(#paint24_radial_3453_37333)"/>
<path d="M121.264 12.8852C130.719 12.8852 138.408 17.1994 138.905 22.6249C138.918 22.4419 138.957 22.2589 138.957 22.0759C138.957 16.3889 131.033 11.7739 121.264 11.7739C111.496 11.7739 103.571 16.3889 103.571 22.0759C103.571 22.2589 103.597 22.4419 103.624 22.6249C104.121 17.1994 111.81 12.8852 121.264 12.8852Z" fill="url(#paint25_linear_3453_37333)"/>
<path style="mix-blend-mode:color-dodge" d="M133.688 8.80631C139.01 10.6105 142.593 14.2187 141.691 16.8465C140.789 19.4743 135.754 20.141 130.445 18.3369C125.123 16.5327 121.539 12.9244 122.442 10.2967C123.344 7.66889 128.379 7.00217 133.688 8.80631Z" fill="url(#paint26_radial_3453_37333)"/>
<g style="mix-blend-mode:multiply">
<path d="M122.625 18.8466C122.18 18.925 121.735 19.0296 121.265 19.1603C120.859 19.2649 120.428 19.3826 119.957 19.5395C119.486 19.6964 119.055 19.8663 118.623 20.0493L120.049 20.873C120.192 20.8207 120.349 20.7553 120.506 20.703C120.676 20.6507 120.846 20.5854 121.029 20.52C121.84 20.2324 122.599 19.9971 123.305 19.801C124.011 19.6049 124.691 19.4741 125.319 19.4087C125.946 19.3434 126.548 19.3565 127.11 19.4611C127.672 19.5526 128.222 19.7617 128.745 20.0624C129.372 20.4154 129.765 20.8076 129.922 21.2129C130.092 21.6182 130.092 22.0365 129.922 22.4549C129.752 22.8732 129.464 23.2916 129.032 23.6969C128.601 24.1021 128.104 24.4943 127.529 24.8735L129.438 25.9716L127.842 26.8868L125.894 25.7625C124.913 26.2593 123.867 26.6907 122.742 27.0829C121.618 27.4751 120.532 27.7758 119.486 27.998L118.453 25.4749C118.989 25.3703 119.539 25.2526 120.114 25.0957C120.598 24.9781 121.134 24.8212 121.722 24.6381C122.311 24.4551 122.873 24.2329 123.396 23.9845L122.01 23.187C121.513 23.37 121.003 23.5531 120.48 23.723C119.696 23.9845 118.976 24.1936 118.322 24.3374C117.682 24.4813 117.08 24.5728 116.544 24.5989C116.008 24.6251 115.511 24.5859 115.053 24.4813C114.596 24.3767 114.164 24.2067 113.759 23.9714C113.196 23.6445 112.804 23.2785 112.608 22.8994C112.412 22.5072 112.359 22.1019 112.451 21.6835C112.542 21.2652 112.778 20.8468 113.131 20.4154C113.497 19.984 113.955 19.5787 114.53 19.1865L112.935 18.2714L114.53 17.3562L116.139 18.2844C116.622 18.0622 117.106 17.853 117.603 17.6569C118.1 17.4739 118.584 17.2908 119.081 17.147C119.565 16.9901 120.036 16.8594 120.493 16.7287C120.951 16.611 121.369 16.4934 121.749 16.4019L122.625 18.8335V18.8466ZM117.289 21.3829C117.446 21.4744 117.642 21.5136 117.878 21.4874C118.113 21.4744 118.401 21.409 118.754 21.3044L117.551 20.6115C117.08 20.9514 116.989 21.1998 117.289 21.3829ZM124.887 22.651C124.743 22.5595 124.534 22.5333 124.259 22.5595C123.985 22.5856 123.684 22.651 123.331 22.7556L124.495 23.4354C124.795 23.2393 124.966 23.0824 125.018 22.9517C125.07 22.8209 125.018 22.7294 124.887 22.651Z" fill="#FF9E6E"/>
</g>
<path d="M122.625 18.2582C122.18 18.3367 121.735 18.4413 121.265 18.572C120.859 18.6766 120.428 18.7942 119.957 18.9511C119.486 19.108 119.055 19.278 118.623 19.461L120.049 20.2846C120.192 20.2323 120.349 20.167 120.506 20.1147C120.676 20.0624 120.846 19.997 121.029 19.9316C121.84 19.644 122.599 19.4087 123.305 19.2126C124.011 19.0165 124.691 18.8858 125.319 18.8204C125.946 18.755 126.548 18.7681 127.11 18.8727C127.672 18.9642 128.222 19.1734 128.745 19.4741C129.372 19.8271 129.765 20.2192 129.922 20.6245C130.092 21.0298 130.092 21.4482 129.922 21.8665C129.752 22.2849 129.464 22.7032 129.032 23.1085C128.601 23.5138 128.104 23.906 127.529 24.2851L129.438 25.3833L127.842 26.2984L125.894 25.1741C124.913 25.6709 123.867 26.1023 122.742 26.4945C121.618 26.8868 120.532 27.1874 119.486 27.4097L118.453 24.8865C118.989 24.7819 119.539 24.6642 120.114 24.5073C120.598 24.3897 121.134 24.2328 121.722 24.0498C122.311 23.8668 122.873 23.6445 123.396 23.3961L122.01 22.5986C121.513 22.7817 121.003 22.9647 120.48 23.1346C119.696 23.3961 118.976 23.6053 118.322 23.7491C117.682 23.8929 117.08 23.9844 116.544 24.0105C116.008 24.0367 115.511 23.9975 115.053 23.8929C114.596 23.7883 114.164 23.6184 113.759 23.383C113.196 23.0562 112.804 22.6901 112.608 22.311C112.412 21.9188 112.359 21.5135 112.451 21.0952C112.542 20.6768 112.778 20.2585 113.131 19.8271C113.497 19.3956 113.955 18.9903 114.53 18.5981L112.935 17.683L114.53 16.7679L116.139 17.6961C116.622 17.4738 117.106 17.2646 117.603 17.0685C118.1 16.8855 118.584 16.7025 119.081 16.5587C119.565 16.4018 120.036 16.271 120.493 16.1403C120.951 16.0227 121.369 15.905 121.749 15.8135L122.625 18.2452V18.2582ZM117.289 20.7945C117.446 20.886 117.642 20.9252 117.878 20.8991C118.113 20.886 118.401 20.8206 118.754 20.716L117.551 20.0231C117.08 20.3631 116.989 20.6114 117.289 20.7945ZM124.887 22.0626C124.743 21.9711 124.534 21.9449 124.259 21.9711C123.985 21.9972 123.684 22.0626 123.331 22.1672L124.495 22.847C124.795 22.6509 124.966 22.4941 125.018 22.3633C125.07 22.2326 125.018 22.1411 124.887 22.0626Z" fill="#FFE585"/>
<path d="M144.921 14.1924H97.5957V20.8729C97.5957 20.8729 97.5957 21.0037 97.5957 21.069C97.5957 28.6778 108.188 34.8485 121.252 34.8485C134.316 34.8485 144.908 28.6778 144.908 21.069C144.908 21.0037 144.908 20.9383 144.908 20.8729V14.1924H144.921Z" fill="url(#paint27_linear_3453_37333)"/>
<g style="mix-blend-mode:multiply">
<path d="M121.264 33.3581C108.201 33.3581 97.6084 27.1874 97.6084 19.5786V20.8598C97.6084 20.8598 97.6084 20.9906 97.6084 21.0559C97.6084 28.6647 108.201 34.8354 121.264 34.8354C134.328 34.8354 144.921 28.6647 144.921 21.0559C144.921 20.9906 144.921 20.9252 144.921 20.8598V19.5786C144.921 27.1874 134.328 33.3581 121.264 33.3581Z" fill="url(#paint28_linear_3453_37333)"/>
</g>
<g style="mix-blend-mode:multiply">
<path d="M128.51 34.1689C128.732 34.1296 128.954 34.0773 129.177 34.025V16.5327H128.51V34.1689Z" fill="#FFE585"/>
<path d="M131.491 33.4629C131.714 33.3975 131.936 33.3452 132.158 33.2799V16.5327H131.491V33.4629Z" fill="#FFE585"/>
<path d="M134.46 32.4955C134.682 32.4039 134.905 32.2993 135.127 32.2078V16.5327H134.46V32.4955Z" fill="#FFE585"/>
<path d="M125.541 34.5872C125.763 34.5611 125.986 34.548 126.208 34.5218V16.5327H125.541V34.6003V34.5872Z" fill="#FFE585"/>
<path d="M140.41 29.1356C140.632 28.9525 140.868 28.7695 141.077 28.5864V16.5327H140.41V29.1356Z" fill="#FFE585"/>
<path d="M143.379 25.9194C143.627 25.5403 143.85 25.1481 144.046 24.7428V16.5195H143.379V25.9194Z" fill="#FFE585"/>
<path d="M137.429 31.0966C137.651 30.9789 137.873 30.8613 138.096 30.7305V16.5327H137.429V31.0966Z" fill="#FFE585"/>
<path d="M122.573 34.7965C122.796 34.7965 123.018 34.7965 123.24 34.7835V16.5459H122.573V34.8096V34.7965Z" fill="#FFE585"/>
<path d="M119.592 34.7833C119.814 34.7833 120.036 34.7964 120.259 34.7964V16.5327H119.592V34.7833Z" fill="#FFE585"/>
<path d="M113.654 34.0904C113.877 34.1296 114.086 34.1819 114.321 34.2212V16.5327H113.654V34.0904Z" fill="#FFE585"/>
<path d="M116.623 34.561C116.845 34.5871 117.068 34.6002 117.29 34.6133V16.5195H116.623V34.5479V34.561Z" fill="#FFE585"/>
<path d="M110.673 33.3583C110.895 33.4237 111.117 33.489 111.34 33.5413V16.5327H110.673V33.3583Z" fill="#FFE585"/>
<path d="M98.7861 25.3442C98.9823 25.6972 99.2046 26.0502 99.4531 26.4032V16.5327H98.7861V25.3442Z" fill="#FFE585"/>
<path d="M101.755 28.8479C101.964 29.031 102.199 29.1879 102.422 29.3578V16.5327H101.755V28.8479Z" fill="#FFE585"/>
<path d="M107.705 32.3386C107.927 32.4301 108.15 32.5216 108.372 32.6V16.5327H107.705V32.3386Z" fill="#FFE585"/>
<path d="M104.736 30.9005C104.946 31.0181 105.181 31.1358 105.403 31.2535V16.5327H104.736V30.9005Z" fill="#FFE585"/>
</g>
<path d="M121.264 28.0633C134.329 28.0633 144.921 21.8941 144.921 14.2839C144.921 6.67369 134.329 0.504395 121.264 0.504395C108.2 0.504395 97.6084 6.67369 97.6084 14.2839C97.6084 21.8941 108.2 28.0633 121.264 28.0633Z" fill="url(#paint29_linear_3453_37333)"/>
<path style="mix-blend-mode:screen" d="M121.264 27.6971C108.475 27.6971 98.0792 21.7879 97.6476 14.4014C97.6476 14.5582 97.6084 14.7151 97.6084 14.8851C97.6084 22.4939 108.201 28.6646 121.264 28.6646C134.328 28.6646 144.921 22.4939 144.921 14.8851C144.921 14.7282 144.894 14.5713 144.881 14.4014C144.45 21.7879 134.054 27.6971 121.264 27.6971Z" fill="url(#paint30_radial_3453_37333)"/>
<path d="M121.264 24.5858C131.036 24.5858 138.957 19.9735 138.957 14.2839C138.957 8.59427 131.036 3.98193 121.264 3.98193C111.493 3.98193 103.571 8.59427 103.571 14.2839C103.571 19.9735 111.493 24.5858 121.264 24.5858Z" fill="url(#paint31_linear_3453_37333)"/>
<path style="mix-blend-mode:screen" d="M121.853 4.50481C131.308 4.50481 138.997 8.81908 139.494 14.2446C139.507 14.0616 139.546 13.8785 139.546 13.6955C139.546 8.00851 131.622 3.39355 121.853 3.39355C112.085 3.39355 104.16 8.00851 104.16 13.6955C104.16 13.8785 104.186 14.0616 104.212 14.2446C104.709 8.81908 112.399 4.50481 121.853 4.50481Z" fill="url(#paint32_radial_3453_37333)"/>
<path d="M121.264 5.09319C130.719 5.09319 138.408 9.40742 138.905 14.8329C138.918 14.6499 138.957 14.4669 138.957 14.2839C138.957 8.59689 131.033 3.98193 121.264 3.98193C111.496 3.98193 103.571 8.59689 103.571 14.2839C103.571 14.4669 103.597 14.6499 103.624 14.8329C104.121 9.40742 111.81 5.09319 121.264 5.09319Z" fill="url(#paint33_linear_3453_37333)"/>
<path style="mix-blend-mode:color-dodge" d="M133.688 1.0143C139.01 2.81845 142.593 6.42677 141.691 9.05454C140.789 11.6823 135.754 12.349 130.445 10.5449C125.123 8.74076 121.539 5.13248 122.442 2.5047C123.344 -0.123071 128.379 -0.789839 133.688 1.0143Z" fill="url(#paint34_radial_3453_37333)"/>
<g style="mix-blend-mode:multiply">
<path d="M122.625 11.0546C122.18 11.1331 121.735 11.2377 121.265 11.3684C120.859 11.473 120.428 11.5907 119.957 11.7475C119.486 11.9044 119.055 12.0744 118.623 12.2574L120.049 13.081C120.192 13.0287 120.349 12.9634 120.506 12.9111C120.676 12.8588 120.846 12.7934 121.029 12.728C121.84 12.4404 122.599 12.2051 123.305 12.009C124.011 11.8129 124.691 11.6822 125.319 11.6168C125.946 11.5514 126.548 11.5645 127.11 11.6691C127.672 11.7606 128.222 11.9698 128.745 12.2705C129.372 12.6235 129.765 13.0157 129.922 13.4209C130.092 13.8262 130.092 14.2446 129.922 14.6629C129.752 15.0813 129.464 15.4996 129.032 15.9049C128.601 16.3102 128.104 16.7024 127.529 17.0815L129.438 18.1797L127.842 19.0948L125.894 17.9705C124.913 18.4673 123.867 18.8987 122.742 19.2909C121.618 19.6831 120.532 19.9838 119.486 20.2061L118.453 17.6829C118.989 17.5783 119.539 17.4607 120.114 17.3038C120.598 17.1861 121.134 17.0292 121.722 16.8462C122.311 16.6632 122.873 16.4409 123.396 16.1925L122.01 15.395C121.513 15.578 121.003 15.7611 120.48 15.931C119.696 16.1925 118.976 16.4017 118.322 16.5455C117.682 16.6893 117.08 16.7808 116.544 16.807C116.008 16.8331 115.511 16.807 115.053 16.6893C114.596 16.5847 114.164 16.4148 113.759 16.1794C113.196 15.8526 112.804 15.4865 112.608 15.1074C112.412 14.7152 112.359 14.3099 112.451 13.8916C112.542 13.4732 112.778 13.0549 113.131 12.6234C113.497 12.192 113.955 11.7867 114.53 11.3945L112.935 10.4794L114.53 9.56424L116.139 10.4925C116.622 10.2702 117.106 10.0611 117.603 9.86495C118.1 9.68192 118.584 9.51194 119.081 9.35506C119.565 9.19818 120.036 9.06744 120.493 8.9367C120.951 8.81904 121.369 8.70138 121.749 8.60986L122.625 11.0416V11.0546ZM117.289 13.5909C117.446 13.6824 117.642 13.7216 117.878 13.6955C118.113 13.6824 118.401 13.617 118.754 13.5124L117.551 12.8195C117.08 13.1594 116.989 13.4079 117.289 13.5909ZM124.887 14.859C124.743 14.7675 124.534 14.7414 124.259 14.7675C123.985 14.7937 123.684 14.859 123.331 14.9636L124.495 15.6434C124.795 15.4473 124.966 15.2904 125.018 15.1597C125.07 15.029 125.018 14.9374 124.887 14.859Z" fill="#FF9E6E"/>
</g>
<path d="M122.625 10.4662C122.18 10.5447 121.735 10.6492 121.265 10.78C120.859 10.8846 120.428 11.0022 119.957 11.1591C119.486 11.316 119.055 11.486 118.623 11.669L120.049 12.4926C120.192 12.4403 120.349 12.375 120.506 12.3227C120.676 12.2704 120.846 12.205 121.029 12.1396C121.84 11.852 122.599 11.6167 123.305 11.4206C124.011 11.2245 124.691 11.0937 125.319 11.0284C125.946 10.963 126.548 10.9761 127.11 11.0807C127.672 11.1722 128.222 11.3814 128.745 11.682C129.372 12.035 129.765 12.4272 129.922 12.8325C130.092 13.2378 130.092 13.6562 129.922 14.0745C129.752 14.4929 129.464 14.9112 129.032 15.3165C128.601 15.7218 128.104 16.114 127.529 16.4931L129.438 17.5913L127.842 18.5064L125.894 17.3821C124.913 17.8789 123.867 18.3103 122.742 18.7025C121.618 19.0947 120.532 19.3954 119.486 19.6177L118.453 17.0945C118.989 16.9899 119.539 16.8722 120.114 16.7154C120.598 16.5977 121.134 16.4408 121.722 16.2578C122.311 16.0747 122.873 15.8525 123.396 15.6041L122.01 14.8066C121.513 14.9897 121.003 15.1727 120.48 15.3427C119.696 15.6041 118.976 15.8133 118.322 15.9571C117.682 16.1009 117.08 16.1924 116.544 16.2186C116.008 16.2447 115.511 16.2186 115.053 16.1009C114.596 15.9963 114.164 15.8264 113.759 15.5911C113.196 15.2642 112.804 14.8981 112.608 14.519C112.412 14.1268 112.359 13.7215 112.451 13.3032C112.542 12.8848 112.778 12.4665 113.131 12.0351C113.497 11.6036 113.955 11.1984 114.53 10.8061L112.935 9.89099L114.53 8.97582L116.139 9.90407C116.622 9.68182 117.106 9.47263 117.603 9.27653C118.1 9.0935 118.584 8.91049 119.081 8.76668C119.565 8.6098 120.036 8.47906 120.493 8.34832C120.951 8.23066 121.369 8.113 121.749 8.02148L122.625 10.4531V10.4662ZM117.289 13.0025C117.446 13.094 117.642 13.1332 117.878 13.1071C118.113 13.094 118.401 13.0286 118.754 12.924L117.551 12.2312C117.08 12.5711 116.989 12.8195 117.289 13.0025ZM124.887 14.2706C124.743 14.1791 124.534 14.1529 124.259 14.1791C123.985 14.2052 123.684 14.2706 123.331 14.3752L124.495 15.055C124.795 14.8589 124.966 14.7021 125.018 14.5713C125.07 14.4406 125.018 14.3491 124.887 14.2706Z" fill="#FFE585"/>
<path d="M305.128 384.612C304.325 382.692 303.396 380.904 302.26 379.16C300.704 376.769 298.971 374.436 297.924 371.758C296.855 369.021 297.01 366.1 296.907 363.223C296.833 361.104 296.199 359 296.369 356.873C296.45 355.858 297.04 354.21 298.359 354.379C299.384 354.511 299.996 355.777 300.387 356.594C301.073 358.006 301.552 359.515 302.061 361.001C302.26 361.582 302.452 362.171 302.702 362.73C302.85 363.054 303.314 363.849 303.757 363.746C304.509 363.562 303.823 360.508 303.713 359.964C303.152 357.249 302.312 354.725 302.194 351.929C302.024 347.875 302.341 343.048 306.315 340.833C307.355 340.252 308.668 339.906 309.656 340.774C310.629 341.628 310.902 343.107 311.049 344.328C311.492 348.073 310.607 351.612 309.405 355.137C308.41 358.043 307.23 361.045 307.141 364.158C307.06 367.152 308.616 369.801 309.353 372.634C310.518 377.137 310.282 379.528 310.282 380.985C310.29 382.81 310.223 384.62 310.091 386.444C309.965 388.122 309.825 389.792 309.619 391.462C309.575 391.801 309.538 392.154 309.493 392.507C310.142 390.955 310.364 389.182 310.902 387.622C311.853 384.855 312.952 382.14 313.866 379.359C314.618 377.063 315.333 374.745 316.321 372.531C317.25 370.456 318.379 368.263 320.119 366.74C321.173 365.82 322.441 365.283 323.85 365.291C324.749 365.298 325.56 365.607 326.416 365.835C327.47 366.115 328.303 366.019 329.173 365.35C332.02 363.164 332.89 359.25 334.991 356.483C336.562 354.423 340.293 350.906 343.036 353.158C344.488 354.35 344.894 356.653 344.813 358.426C344.717 360.641 343.744 362.671 342.593 364.525C341.362 366.497 339.777 368.263 338.648 370.287C337.977 371.486 337.874 372.634 337.985 373.98C338.088 375.253 338.199 376.482 337.764 377.711C336.459 381.397 332.381 380.882 329.21 380.978C326.991 381.044 324.617 381.375 322.508 382.081C320.075 382.898 318.489 384.48 317.619 386.879C316.992 388.615 316.653 390.594 315.466 392.066C314.906 392.757 314.168 393.272 313.357 393.633C312.118 394.177 308.351 394.413 308.328 394.074C308.233 392.927 307.687 391.713 307.348 390.624C306.714 388.586 305.954 386.592 305.128 384.612Z" fill="#19C9D1"/>
<path d="M332.006 351.663C329.115 354.201 325.451 355.827 322.914 358.763C321.919 359.918 321.019 361.147 320.09 362.361C319.412 363.244 317.613 364.708 317.325 365.812C317.2 366.298 317.222 365.635 317.355 365.15C317.362 365.128 317.369 365.113 317.377 365.091C317.627 362.847 317.812 360.595 317.893 358.337C317.974 356.085 317.834 353.826 317.974 351.582C318.173 348.411 319.169 345.343 321.764 343.356C323.032 342.385 324.662 341.796 325.834 340.715C326.94 339.692 326.498 338.522 325.849 337.381C325.237 336.315 324.5 335.262 324.264 334.034C323.991 332.636 324.522 331.194 325.23 330.009C326.741 327.478 330.089 324.652 333.267 325.035C335.914 325.351 336.216 328.398 336.172 330.517C336.135 332.577 335.929 334.637 335.914 336.697C335.892 338.816 336.253 340.898 336.283 343.01C336.312 346.601 334.646 349.338 332.006 351.663Z" fill="#19C9D1"/>
<path d="M287.631 383.923C287.956 381.818 287.897 379.493 288.892 377.558C288.966 377.418 289.15 377.381 289.283 377.455C289.998 377.852 290.028 379.008 290.087 379.714C290.182 380.891 290.109 382.068 290.256 383.238C290.507 385.298 290.986 387.418 291.731 389.353C292.571 391.545 294.098 392.789 296.317 393.473C297.74 393.914 299.141 394.297 300.336 395.239C301.405 396.085 302.142 397.248 302.688 398.476C304.17 401.795 304.878 405.496 305.564 409.042C306.028 411.426 306.404 413.825 306.987 416.187C307.569 418.548 308.189 420.896 308.52 423.309C308.579 423.434 308.638 423.552 308.69 423.677C308.845 424.037 308.277 424.229 308.085 423.934C305.792 420.417 303.005 417.254 299.193 415.318C297.475 414.443 295.189 414.259 293.751 412.883C292.66 411.838 292.512 410.241 292.675 408.814C292.888 406.945 293.788 405.407 294.724 403.811C295.241 402.935 295.845 402.001 295.639 400.934C295.44 399.933 294.607 399.19 293.781 398.675C292.195 397.696 290.345 397.255 289.054 395.842C287.852 394.533 287.181 392.892 287.049 391.126C286.857 388.779 287.27 386.248 287.631 383.923Z" fill="#19C9D1"/>
<path d="M318.866 396.065C320.886 393.468 323.327 391.223 326.07 389.406C327.537 388.435 330.988 386.522 331.688 389.384C332.094 391.062 330.45 392.71 329.366 393.762C327.736 395.344 325.856 396.705 324.484 398.53C326.188 399.074 327.965 399.177 329.439 400.347C331.187 401.738 331.976 404.416 330.236 406.123C329.388 406.954 328.267 407.462 327.22 407.97C325.848 408.632 324.455 409.228 323.054 409.817C320.023 411.082 316.956 412.362 314.375 414.43C311.743 416.534 309.265 420.103 309.059 423.539C309.037 423.87 309.162 423.568 308.97 423.421C308.86 423.517 308.506 423.348 308.506 423.156C308.557 418.057 309.479 413.194 311.566 408.522C313.505 404.181 315.946 399.817 318.866 396.065Z" fill="#19C9D1"/>
<path d="M325.85 348.574C312.504 371.935 306.339 395.355 309.34 422.197C309.68 423.359 307.401 430.437 306.561 427.936C310.55 418.628 306.037 408.327 307.777 398.593C309.621 381.383 316.338 361.568 325.85 348.574Z" fill="#4F2919"/>
<path d="M308.844 391.688C308.527 387.847 308.18 384.146 306.89 380.489C306.285 378.782 305.555 377.12 304.966 375.405C304.486 373.985 303.764 372.043 304.132 370.534C304.177 370.365 304.42 370.372 304.464 370.534C304.715 371.395 304.685 372.337 304.862 373.22C305.039 374.081 305.268 374.92 305.533 375.758C306.101 377.532 306.846 379.231 307.487 380.982C308.733 384.36 309.375 388.097 309.102 391.688C309.095 391.857 308.859 391.857 308.844 391.688Z" fill="#4F2919"/>
<path d="M331.144 369.623C329.618 373.302 325.024 373.515 321.677 374.339C319.288 374.928 317.525 376.517 316.257 378.585C314.871 380.844 313.935 383.492 313.16 386.016C313.153 386.046 313.109 386.031 313.116 386.001C314.053 381.587 315.395 376.274 319.951 374.221C323.609 372.573 328.424 373.405 330.754 369.461C330.879 369.27 331.24 369.395 331.144 369.623Z" fill="#4F2919"/>
<path d="M320.815 402.793C318.182 404.949 315.749 407.502 313.817 410.305C312.896 411.644 312.04 413.057 311.266 414.485C310.425 416.044 309.865 417.693 309.209 419.333C309.157 419.458 308.929 419.458 308.951 419.297C309.319 415.831 311.517 412.866 313.272 409.982C314.186 408.488 315.321 407.281 316.545 406.03C317.806 404.743 319.097 403.521 320.571 402.484C320.756 402.359 320.984 402.646 320.815 402.793Z" fill="#4F2919"/>
<path d="M299.828 398.709C301.096 399.43 301.14 401.424 301.162 402.704C301.207 405.162 300.602 407.465 301.679 409.804C302.652 411.916 304.208 413.682 305.432 415.639C306.575 417.479 307.71 419.826 307.681 422.033C307.681 422.158 307.482 422.232 307.423 422.099C306.958 421.099 306.796 419.958 306.464 418.906C306.095 417.721 305.572 416.647 304.901 415.61C303.721 413.785 302.276 412.129 301.317 410.172C300.307 408.105 300.455 406.059 300.521 403.822C300.565 402.395 300.705 400.099 299.555 399.04C299.393 398.878 299.621 398.598 299.828 398.709Z" fill="#4F2919"/>
<path d="M308.315 422.266C313.425 422.192 323.165 422.141 323.165 422.141L320.754 439.991C320.209 444.008 316.78 447.003 312.717 447.003H308.522H308.116H303.921C299.858 447.003 296.422 444.008 295.883 439.991L293.465 422.141C293.465 422.141 303.205 422.199 308.315 422.266Z" fill="#9D80E3"/>
<path opacity="0.7" d="M374.526 210.946H371.507C370.976 210.946 370.72 210.513 370.927 209.982L372.146 206.964C372.363 206.433 372.972 206 373.503 206H376.522C377.053 206 377.309 206.433 377.102 206.964L375.883 209.982C375.667 210.513 375.057 210.946 374.526 210.946Z" fill="white"/>
<path d="M405.452 210.946H402.433C401.902 210.946 401.646 210.513 401.853 209.982L403.072 206.964C403.288 206.433 403.898 206 404.429 206H407.448C407.979 206 408.234 206.433 408.028 206.964L406.809 209.982C406.592 210.513 405.983 210.946 405.452 210.946Z" fill="#19C9D1"/>
<path d="M368.784 225.175H365.765C365.234 225.175 364.978 224.742 365.185 224.211L366.404 221.192C366.62 220.661 367.23 220.229 367.761 220.229H370.78C371.311 220.229 371.567 220.661 371.36 221.192L370.141 224.211C369.924 224.742 369.315 225.175 368.784 225.175Z" fill="#19C9D1"/>
<path opacity="0.7" d="M384.241 225.175H381.222C380.691 225.175 380.435 224.742 380.642 224.211L381.861 221.192C382.077 220.661 382.687 220.229 383.218 220.229H386.237C386.768 220.229 387.024 220.661 386.817 221.192L385.598 224.211C385.381 224.742 384.772 225.175 384.241 225.175Z" fill="white"/>
<path opacity="0.7" d="M399.699 225.175H396.68C396.149 225.175 395.893 224.742 396.1 224.211L397.319 221.192C397.535 220.661 398.145 220.229 398.676 220.229H401.695C402.226 220.229 402.482 220.661 402.275 221.192L401.056 224.211C400.839 224.742 400.23 225.175 399.699 225.175Z" fill="white"/>
<path opacity="0.7" d="M412.069 225.175H409.05C408.519 225.175 408.263 224.742 408.47 224.211L409.689 221.192C409.906 220.661 410.515 220.229 411.046 220.229H414.065C414.596 220.229 414.852 220.661 414.645 221.192L413.426 224.211C413.21 224.742 412.6 225.175 412.069 225.175Z" fill="white"/>
<path opacity="0.7" d="M363.041 239.394H360.022C359.491 239.394 359.235 238.961 359.442 238.43L360.661 235.411C360.877 234.88 361.487 234.448 362.018 234.448H365.037C365.568 234.448 365.823 234.88 365.617 235.411L364.398 238.43C364.181 238.961 363.572 239.394 363.041 239.394Z" fill="white"/>
<path opacity="0.7" d="M350.67 239.394H347.652C347.121 239.394 346.865 238.961 347.071 238.43L348.291 235.411C348.507 234.88 349.117 234.448 349.648 234.448H352.667C353.198 234.448 353.453 234.88 353.247 235.411L352.027 238.43C351.811 238.961 351.201 239.394 350.67 239.394Z" fill="white"/>
<path opacity="0.7" d="M378.499 239.394H375.48C374.949 239.394 374.693 238.961 374.9 238.43L376.119 235.411C376.335 234.88 376.945 234.448 377.476 234.448H380.495C381.026 234.448 381.281 234.88 381.075 235.411L379.856 238.43C379.639 238.961 379.03 239.394 378.499 239.394Z" fill="white"/>
<path d="M393.957 239.394H390.938C390.407 239.394 390.151 238.961 390.358 238.43L391.577 235.411C391.793 234.88 392.403 234.448 392.934 234.448H395.953C396.484 234.448 396.739 234.88 396.533 235.411L395.314 238.43C395.097 238.961 394.488 239.394 393.957 239.394Z" fill="#19C9D1"/>
<path d="M357.288 253.623H354.269C353.738 253.623 353.482 253.19 353.689 252.659L354.908 249.64C355.124 249.109 355.734 248.677 356.265 248.677H359.284C359.815 248.677 360.07 249.109 359.864 249.64L358.645 252.659C358.428 253.19 357.819 253.623 357.288 253.623Z" fill="#19C9D1"/>
<defs>
<linearGradient id="paint0_linear_3453_37333" x1="83.5044" y1="338.598" x2="383.203" y2="53.4727" gradientUnits="userSpaceOnUse">
<stop stop-color="white" stop-opacity="0.2"/>
<stop offset="1" stop-color="white" stop-opacity="0.4"/>
</linearGradient>
<linearGradient id="paint1_linear_3453_37333" x1="141.313" y1="146.682" x2="371.5" y2="10.3146" gradientUnits="userSpaceOnUse">
<stop stop-color="white"/>
<stop offset="0.42" stop-color="#FDFEFE"/>
<stop offset="0.57" stop-color="#F6FDFE"/>
<stop offset="0.68" stop-color="#EAFBFC"/>
<stop offset="0.77" stop-color="#D9F9FA"/>
<stop offset="0.85" stop-color="#C3F5F8"/>
<stop offset="0.91" stop-color="#A8F1F5"/>
<stop offset="0.97" stop-color="#88ECF2"/>
<stop offset="1" stop-color="#76EAF0"/>
</linearGradient>
<radialGradient id="paint2_radial_3453_37333" cx="0" cy="0" r="1" gradientUnits="userSpaceOnUse" gradientTransform="translate(130.771 61.2297) scale(31.1669 14.3623)">
<stop offset="0.19" stop-color="#AFB6E5"/>
<stop offset="1" stop-color="white"/>
</radialGradient>
<linearGradient id="paint3_linear_3453_37333" x1="97.8311" y1="47.8829" x2="144.398" y2="47.8829" gradientUnits="userSpaceOnUse">
<stop stop-color="#FF9E6E"/>
<stop offset="0.19" stop-color="#FFE585"/>
<stop offset="0.3" stop-color="#FFE4A7"/>
<stop offset="0.43" stop-color="#FFE585"/>
<stop offset="0.57" stop-color="#FF9E6E"/>
<stop offset="0.68" stop-color="#FFA16F"/>
<stop offset="0.77" stop-color="#FFAC72"/>
<stop offset="0.86" stop-color="#FFBD78"/>
<stop offset="0.9" stop-color="#FFC87C"/>
<stop offset="1" stop-color="#FF9E6E"/>
</linearGradient>
<linearGradient id="paint4_linear_3453_37333" x1="97.8307" y1="50.5759" x2="144.397" y2="50.5759" gradientUnits="userSpaceOnUse">
<stop stop-color="#FF9E6E"/>
<stop offset="0.19" stop-color="#FFE585"/>
<stop offset="0.3" stop-color="#FFE4A7"/>
<stop offset="0.43" stop-color="#FFE585"/>
<stop offset="0.57" stop-color="#FF9E6E"/>
<stop offset="0.68" stop-color="#FFA16F"/>
<stop offset="0.77" stop-color="#FFAC72"/>
<stop offset="0.86" stop-color="#FFBD78"/>
<stop offset="0.9" stop-color="#FFC87C"/>
<stop offset="1" stop-color="#FF9E6E"/>
</linearGradient>
<linearGradient id="paint5_linear_3453_37333" x1="164.981" y1="-6.33297" x2="118.713" y2="40.2468" gradientUnits="userSpaceOnUse">
<stop offset="0.04" stop-color="#FF9E6E"/>
<stop offset="0.3" stop-color="#FFAD72"/>
<stop offset="0.82" stop-color="#FFD580"/>
<stop offset="1" stop-color="#FFE585"/>
</linearGradient>
<radialGradient id="paint6_radial_3453_37333" cx="0" cy="0" r="1" gradientUnits="userSpaceOnUse" gradientTransform="translate(111.091 47.7911) scale(29.7368 29.7291)">
<stop stop-color="white"/>
<stop offset="1"/>
</radialGradient>
<linearGradient id="paint7_linear_3453_37333" x1="140.278" y1="18.5328" x2="105.686" y2="53.3434" gradientUnits="userSpaceOnUse">
<stop offset="0.04" stop-color="#FF9E6E"/>
<stop offset="0.3" stop-color="#FFAD72"/>
<stop offset="0.82" stop-color="#FFD580"/>
<stop offset="1" stop-color="#FFE585"/>
</linearGradient>
<radialGradient id="paint8_radial_3453_37333" cx="0" cy="0" r="1" gradientUnits="userSpaceOnUse" gradientTransform="translate(129.595 26.3768) scale(13.0769 13.0735)">
<stop stop-color="white"/>
<stop offset="1"/>
</radialGradient>
<linearGradient id="paint9_linear_3453_37333" x1="146.647" y1="10.9894" x2="114.002" y2="43.8516" gradientUnits="userSpaceOnUse">
<stop stop-color="#FF9E6E"/>
<stop offset="0.19" stop-color="#FFE585"/>
<stop offset="0.3" stop-color="#FFE4A7"/>
<stop offset="0.43" stop-color="#FFE585"/>
<stop offset="0.57" stop-color="#FF9E6E"/>
<stop offset="0.68" stop-color="#FFA16F"/>
<stop offset="0.77" stop-color="#FFAC72"/>
<stop offset="0.86" stop-color="#FFBD78"/>
<stop offset="0.9" stop-color="#FFC87C"/>
<stop offset="1" stop-color="#FF9E6E"/>
</linearGradient>
<radialGradient id="paint10_radial_3453_37333" cx="0" cy="0" r="1" gradientUnits="userSpaceOnUse" gradientTransform="translate(162.618 40.3836) rotate(-71.2055) scale(5.03605 10.0742)">
<stop stop-color="#F49587"/>
<stop offset="0.12" stop-color="#BC7368"/>
<stop offset="0.24" stop-color="#8B544C"/>
<stop offset="0.36" stop-color="#603A35"/>
<stop offset="0.48" stop-color="#3D2522"/>
<stop offset="0.61" stop-color="#221513"/>
<stop offset="0.74" stop-color="#0F0908"/>
<stop offset="0.86" stop-color="#030202"/>
<stop offset="1"/>
</radialGradient>
<linearGradient id="paint11_linear_3453_37333" x1="-152.487" y1="39.9209" x2="-151.179" y2="39.9209" gradientUnits="userSpaceOnUse">
<stop stop-color="#FF9E6E"/>
<stop offset="0.19" stop-color="#FFE585"/>
<stop offset="0.3" stop-color="#FFE4A7"/>
<stop offset="0.43" stop-color="#FFE585"/>
<stop offset="0.57" stop-color="#FF9E6E"/>
<stop offset="0.68" stop-color="#FFA16F"/>
<stop offset="0.77" stop-color="#FFAC72"/>
<stop offset="0.86" stop-color="#FFBD78"/>
<stop offset="0.9" stop-color="#FFC87C"/>
<stop offset="1" stop-color="#FF9E6E"/>
</linearGradient>
<linearGradient id="paint12_linear_3453_37333" x1="97.8307" y1="42.614" x2="144.397" y2="42.614" gradientUnits="userSpaceOnUse">
<stop stop-color="#FF9E6E"/>
<stop offset="0.19" stop-color="#FFE585"/>
<stop offset="0.3" stop-color="#FFE4A7"/>
<stop offset="0.43" stop-color="#FFE585"/>
<stop offset="0.57" stop-color="#FF9E6E"/>
<stop offset="0.68" stop-color="#FFA16F"/>
<stop offset="0.77" stop-color="#FFAC72"/>
<stop offset="0.86" stop-color="#FFBD78"/>
<stop offset="0.9" stop-color="#FFC87C"/>
<stop offset="1" stop-color="#FF9E6E"/>
</linearGradient>
<linearGradient id="paint13_linear_3453_37333" x1="164.981" y1="-14.2949" x2="118.713" y2="32.2849" gradientUnits="userSpaceOnUse">
<stop offset="0.04" stop-color="#FF9E6E"/>
<stop offset="0.3" stop-color="#FFAD72"/>
<stop offset="0.82" stop-color="#FFD580"/>
<stop offset="1" stop-color="#FFE585"/>
</linearGradient>
<radialGradient id="paint14_radial_3453_37333" cx="0" cy="0" r="1" gradientUnits="userSpaceOnUse" gradientTransform="translate(-151.833 39.8296) scale(0.653844 0.653676)">
<stop stop-color="white"/>
<stop offset="1"/>
</radialGradient>
<linearGradient id="paint15_linear_3453_37333" x1="140.278" y1="10.5578" x2="105.686" y2="45.3815" gradientUnits="userSpaceOnUse">
<stop offset="0.04" stop-color="#FF9E6E"/>
<stop offset="0.3" stop-color="#FFAD72"/>
<stop offset="0.82" stop-color="#FFD580"/>
<stop offset="1" stop-color="#FFE585"/>
</linearGradient>
<radialGradient id="paint16_radial_3453_37333" cx="0" cy="0" r="1" gradientUnits="userSpaceOnUse" gradientTransform="translate(129.595 18.4149) scale(13.0769 13.0735)">
<stop stop-color="white"/>
<stop offset="1"/>
</radialGradient>
<linearGradient id="paint17_linear_3453_37333" x1="146.647" y1="3.02744" x2="114.002" y2="35.8896" gradientUnits="userSpaceOnUse">
<stop stop-color="#FF9E6E"/>
<stop offset="0.19" stop-color="#FFE585"/>
<stop offset="0.3" stop-color="#FFE4A7"/>
<stop offset="0.43" stop-color="#FFE585"/>
<stop offset="0.57" stop-color="#FF9E6E"/>
<stop offset="0.68" stop-color="#FFA16F"/>
<stop offset="0.77" stop-color="#FFAC72"/>
<stop offset="0.86" stop-color="#FFBD78"/>
<stop offset="0.9" stop-color="#FFC87C"/>
<stop offset="1" stop-color="#FF9E6E"/>
</linearGradient>
<radialGradient id="paint18_radial_3453_37333" cx="0" cy="0" r="1" gradientUnits="userSpaceOnUse" gradientTransform="translate(162.641 32.4265) rotate(-71.2055) scale(5.03605 10.0742)">
<stop stop-color="#F49587"/>
<stop offset="0.12" stop-color="#BC7368"/>
<stop offset="0.24" stop-color="#8B544C"/>
<stop offset="0.36" stop-color="#603A35"/>
<stop offset="0.48" stop-color="#3D2522"/>
<stop offset="0.61" stop-color="#221513"/>
<stop offset="0.74" stop-color="#0F0908"/>
<stop offset="0.86" stop-color="#030202"/>
<stop offset="1"/>
</radialGradient>
<linearGradient id="paint19_linear_3453_37333" x1="-152.487" y1="32.2994" x2="-151.179" y2="32.2994" gradientUnits="userSpaceOnUse">
<stop stop-color="#FF9E6E"/>
<stop offset="0.19" stop-color="#FFE585"/>
<stop offset="0.3" stop-color="#FFE4A7"/>
<stop offset="0.43" stop-color="#FFE585"/>
<stop offset="0.57" stop-color="#FF9E6E"/>
<stop offset="0.68" stop-color="#FFA16F"/>
<stop offset="0.77" stop-color="#FFAC72"/>
<stop offset="0.86" stop-color="#FFBD78"/>
<stop offset="0.9" stop-color="#FFC87C"/>
<stop offset="1" stop-color="#FF9E6E"/>
</linearGradient>
<linearGradient id="paint20_linear_3453_37333" x1="97.8307" y1="34.9925" x2="144.397" y2="34.9925" gradientUnits="userSpaceOnUse">
<stop stop-color="#FF9E6E"/>
<stop offset="0.19" stop-color="#FFE585"/>
<stop offset="0.3" stop-color="#FFE4A7"/>
<stop offset="0.43" stop-color="#FFE585"/>
<stop offset="0.57" stop-color="#FF9E6E"/>
<stop offset="0.68" stop-color="#FFA16F"/>
<stop offset="0.77" stop-color="#FFAC72"/>
<stop offset="0.86" stop-color="#FFBD78"/>
<stop offset="0.9" stop-color="#FFC87C"/>
<stop offset="1" stop-color="#FF9E6E"/>
</linearGradient>
<linearGradient id="paint21_linear_3453_37333" x1="164.981" y1="-21.9165" x2="118.713" y2="24.6633" gradientUnits="userSpaceOnUse">
<stop offset="0.04" stop-color="#FF9E6E"/>
<stop offset="0.3" stop-color="#FFAD72"/>
<stop offset="0.82" stop-color="#FFD580"/>
<stop offset="1" stop-color="#FFE585"/>
</linearGradient>
<radialGradient id="paint22_radial_3453_37333" cx="0" cy="0" r="1" gradientUnits="userSpaceOnUse" gradientTransform="translate(-151.833 32.2077) scale(0.653844 0.653676)">
<stop stop-color="white"/>
<stop offset="1"/>
</radialGradient>
<linearGradient id="paint23_linear_3453_37333" x1="140.278" y1="2.9493" x2="105.686" y2="37.7599" gradientUnits="userSpaceOnUse">
<stop offset="0.04" stop-color="#FF9E6E"/>
<stop offset="0.3" stop-color="#FFAD72"/>
<stop offset="0.82" stop-color="#FFD580"/>
<stop offset="1" stop-color="#FFE585"/>
</linearGradient>
<radialGradient id="paint24_radial_3453_37333" cx="0" cy="0" r="1" gradientUnits="userSpaceOnUse" gradientTransform="translate(129.595 10.7933) scale(13.0769 13.0735)">
<stop stop-color="white"/>
<stop offset="1"/>
</radialGradient>
<linearGradient id="paint25_linear_3453_37333" x1="146.647" y1="-4.59408" x2="114.002" y2="28.2681" gradientUnits="userSpaceOnUse">
<stop stop-color="#FF9E6E"/>
<stop offset="0.19" stop-color="#FFE585"/>
<stop offset="0.3" stop-color="#FFE4A7"/>
<stop offset="0.43" stop-color="#FFE585"/>
<stop offset="0.57" stop-color="#FF9E6E"/>
<stop offset="0.68" stop-color="#FFA16F"/>
<stop offset="0.77" stop-color="#FFAC72"/>
<stop offset="0.86" stop-color="#FFBD78"/>
<stop offset="0.9" stop-color="#FFC87C"/>
<stop offset="1" stop-color="#FF9E6E"/>
</linearGradient>
<radialGradient id="paint26_radial_3453_37333" cx="0" cy="0" r="1" gradientUnits="userSpaceOnUse" gradientTransform="translate(162.662 24.8153) rotate(-71.2055) scale(5.03604 10.0742)">
<stop stop-color="#F49587"/>
<stop offset="0.12" stop-color="#BC7368"/>
<stop offset="0.24" stop-color="#8B544C"/>
<stop offset="0.36" stop-color="#603A35"/>
<stop offset="0.48" stop-color="#3D2522"/>
<stop offset="0.61" stop-color="#221513"/>
<stop offset="0.74" stop-color="#0F0908"/>
<stop offset="0.86" stop-color="#030202"/>
<stop offset="1"/>
</radialGradient>
<linearGradient id="paint27_linear_3453_37333" x1="-152.487" y1="24.5074" x2="-151.179" y2="24.5074" gradientUnits="userSpaceOnUse">
<stop stop-color="#FF9E6E"/>
<stop offset="0.19" stop-color="#FFE585"/>
<stop offset="0.3" stop-color="#FFE4A7"/>
<stop offset="0.43" stop-color="#FFE585"/>
<stop offset="0.57" stop-color="#FF9E6E"/>
<stop offset="0.68" stop-color="#FFA16F"/>
<stop offset="0.77" stop-color="#FFAC72"/>
<stop offset="0.86" stop-color="#FFBD78"/>
<stop offset="0.9" stop-color="#FFC87C"/>
<stop offset="1" stop-color="#FF9E6E"/>
</linearGradient>
<linearGradient id="paint28_linear_3453_37333" x1="97.8307" y1="27.2005" x2="144.397" y2="27.2005" gradientUnits="userSpaceOnUse">
<stop stop-color="#FF9E6E"/>
<stop offset="0.19" stop-color="#FFE585"/>
<stop offset="0.3" stop-color="#FFE4A7"/>
<stop offset="0.43" stop-color="#FFE585"/>
<stop offset="0.57" stop-color="#FF9E6E"/>
<stop offset="0.68" stop-color="#FFA16F"/>
<stop offset="0.77" stop-color="#FFAC72"/>
<stop offset="0.86" stop-color="#FFBD78"/>
<stop offset="0.9" stop-color="#FFC87C"/>
<stop offset="1" stop-color="#FF9E6E"/>
</linearGradient>
<linearGradient id="paint29_linear_3453_37333" x1="164.981" y1="-29.7085" x2="118.713" y2="16.8713" gradientUnits="userSpaceOnUse">
<stop offset="0.04" stop-color="#FF9E6E"/>
<stop offset="0.3" stop-color="#FFAD72"/>
<stop offset="0.82" stop-color="#FFD580"/>
<stop offset="1" stop-color="#FFE585"/>
</linearGradient>
<radialGradient id="paint30_radial_3453_37333" cx="0" cy="0" r="1" gradientUnits="userSpaceOnUse" gradientTransform="translate(-151.833 24.4157) scale(0.653844 0.653676)">
<stop stop-color="white"/>
<stop offset="1"/>
</radialGradient>
<linearGradient id="paint31_linear_3453_37333" x1="140.278" y1="-4.84267" x2="105.686" y2="29.968" gradientUnits="userSpaceOnUse">
<stop offset="0.04" stop-color="#FF9E6E"/>
<stop offset="0.3" stop-color="#FFAD72"/>
<stop offset="0.82" stop-color="#FFD580"/>
<stop offset="1" stop-color="#FFE585"/>
</linearGradient>
<radialGradient id="paint32_radial_3453_37333" cx="0" cy="0" r="1" gradientUnits="userSpaceOnUse" gradientTransform="translate(129.595 3.00135) scale(13.0769 13.0735)">
<stop stop-color="white"/>
<stop offset="1"/>
</radialGradient>
<linearGradient id="paint33_linear_3453_37333" x1="146.647" y1="-12.3861" x2="114.002" y2="20.4761" gradientUnits="userSpaceOnUse">
<stop stop-color="#FF9E6E"/>
<stop offset="0.19" stop-color="#FFE585"/>
<stop offset="0.3" stop-color="#FFE4A7"/>
<stop offset="0.43" stop-color="#FFE585"/>
<stop offset="0.57" stop-color="#FF9E6E"/>
<stop offset="0.68" stop-color="#FFA16F"/>
<stop offset="0.77" stop-color="#FFAC72"/>
<stop offset="0.86" stop-color="#FFBD78"/>
<stop offset="0.9" stop-color="#FFC87C"/>
<stop offset="1" stop-color="#FF9E6E"/>
</linearGradient>
<radialGradient id="paint34_radial_3453_37333" cx="0" cy="0" r="1" gradientUnits="userSpaceOnUse" gradientTransform="translate(162.684 17.0318) rotate(-71.2055) scale(5.03605 10.0742)">
<stop stop-color="#F49587"/>
<stop offset="0.12" stop-color="#BC7368"/>
<stop offset="0.24" stop-color="#8B544C"/>
<stop offset="0.36" stop-color="#603A35"/>
<stop offset="0.48" stop-color="#3D2522"/>
<stop offset="0.61" stop-color="#221513"/>
<stop offset="0.74" stop-color="#0F0908"/>
<stop offset="0.86" stop-color="#030202"/>
<stop offset="1"/>
</radialGradient>
</defs>
</svg>
