<svg width="160" height="40" viewBox="0 0 160 40" fill="none" xmlns="http://www.w3.org/2000/svg">
<path fill-rule="evenodd" clip-rule="evenodd" d="M15.3147 40H0.00634766V0H15.3147V3.14583H3.15218V36.8542H15.3147V40Z" fill="white"/>
<path fill-rule="evenodd" clip-rule="evenodd" d="M34.4312 40H19.1104V36.8542H31.2812V3.14583H19.1104V0H34.4312V40Z" fill="white"/>
<path fill-rule="evenodd" clip-rule="evenodd" d="M19.3064 18.0629H8.87305V8.40039H19.3064C21.4897 8.40039 23.2605 10.1712 23.2605 12.3462V14.1171C23.2605 16.3004 21.4897 18.0629 19.3064 18.0629Z" fill="white"/>
<path fill-rule="evenodd" clip-rule="evenodd" d="M20.8812 31.5916H8.86865V20.1416H20.8812C23.4687 20.1416 25.5645 22.2374 25.5645 24.8249V26.9208C25.5645 29.5083 23.4687 31.5958 20.8812 31.5958V31.5916Z" fill="white"/>
<path fill-rule="evenodd" clip-rule="evenodd" d="M127.877 24.5327C130.006 24.5327 131.856 24.2244 133.219 23.6119V20.6411C132.077 21.1077 130.29 21.4119 128.748 21.4119C125.627 21.4119 123.927 20.7036 123.498 18.3619H134.09V15.7036C134.09 11.8702 131.619 9.27441 127.077 9.27441C122.14 9.27441 119.64 12.2119 119.64 16.8744C119.64 22.0286 122.815 24.5286 127.881 24.5286L127.877 24.5327ZM123.494 15.7911C123.494 13.3286 124.448 12.2744 127.194 12.2744C129.544 12.2744 130.44 13.3286 130.44 14.9911V15.7869H123.494V15.7911Z" fill="white"/>
<path fill-rule="evenodd" clip-rule="evenodd" d="M153.506 24.5325C157.768 24.5325 159.993 23.0242 159.993 20.0867C159.993 17.5533 158.939 16.4408 155.452 15.3617C153.039 14.6242 151.964 14.4658 151.964 13.5742C151.964 12.7408 153.114 12.5825 154.868 12.5825C156.106 12.5825 157.681 12.8617 158.798 13.3908V9.96165C157.685 9.58249 155.985 9.27832 154.193 9.27832C149.652 9.27832 147.739 10.8575 147.739 13.6367C147.739 16.17 149.223 17.2158 151.906 18.1158C154.439 18.9492 155.764 19.1575 155.764 20.1492C155.764 21.0158 154.993 21.1658 152.96 21.1658C151.418 21.1658 149.435 20.8575 148.014 20.27V23.7325C149.223 24.1867 151.318 24.5283 153.51 24.5283L153.506 24.5325Z" fill="white"/>
<path fill-rule="evenodd" clip-rule="evenodd" d="M142.79 24.5333C144.123 24.5333 145.14 24.3499 146.061 23.9833V21.1083C145.419 21.3291 144.861 21.4166 144.273 21.4166C142.702 21.4166 141.994 20.9249 141.994 19.3208V12.8041H145.448L145.694 9.58743H141.994V5.2041L137.819 6.4416V9.58743H135.748V12.8041H137.819V19.5999C137.819 22.6499 139.398 24.5374 142.79 24.5374V24.5333Z" fill="white"/>
<path fill-rule="evenodd" clip-rule="evenodd" d="M77.0731 24.5325C79.6064 24.5325 81.2398 23.945 82.3856 22.9033L82.5981 24.2283H86.2189V14.9325C86.2189 10.9783 83.6856 9.27832 79.3023 9.27832C76.9773 9.27832 74.9689 9.68249 73.6106 10.2075V13.145C75.1023 12.645 76.7939 12.3658 78.4314 12.3658C81.4564 12.3658 82.2273 13.0492 82.2273 14.8367V15.2408H77.9064C73.8898 15.2408 71.8564 17.1242 71.8564 19.9908C71.8564 23.0242 74.2606 24.5325 77.0731 24.5325ZM78.2148 21.7867C76.3898 21.7867 75.5564 21.0783 75.5564 19.8408C75.5564 18.4825 76.3648 17.8325 78.0023 17.8325H82.2273V20.1492C81.4273 21.1033 80.0689 21.7908 78.2106 21.7908L78.2148 21.7867Z" fill="white"/>
<path fill-rule="evenodd" clip-rule="evenodd" d="M104.465 24.2288H108.64V19.4121L110.332 17.7746L114.786 24.2288H119.194L112.961 15.5829L118.852 9.58294H114.102L108.64 14.8704V3.41211H104.465V24.2288Z" fill="white"/>
<path fill-rule="evenodd" clip-rule="evenodd" d="M96.5897 24.533C98.5355 24.533 100.14 24.2622 101.561 23.6372V20.5497C100.361 21.1372 98.9397 21.408 97.5189 21.408C94.1522 21.408 92.7314 20.058 92.7314 16.8997C92.7314 13.4705 94.423 12.3913 97.5439 12.3913C99.0855 12.3913 100.506 12.6997 101.536 13.1997V10.1997C100.14 9.54967 98.7814 9.27051 96.7147 9.27051C91.7439 9.27051 88.498 11.7413 88.498 16.8997C88.498 22.058 91.373 24.5288 96.5897 24.5288V24.533Z" fill="white"/>
<path fill-rule="evenodd" clip-rule="evenodd" d="M53.0478 24.5329C57.152 24.5329 59.7478 22.0621 59.7478 16.7829C59.7478 11.5038 57.127 9.27878 52.927 9.27878C51.3145 9.27878 49.8062 9.65794 48.6062 10.3913V3.41211H44.4312V24.2288H48.0437L48.2645 22.8704C49.527 23.9829 50.9812 24.5371 53.052 24.5371L53.0478 24.5329ZM51.8728 21.4829C50.602 21.4829 49.402 21.0163 48.602 20.1496V13.4163C49.3728 12.7079 50.5395 12.3371 51.8395 12.3371C54.4103 12.3371 55.5228 13.5371 55.5228 16.7829C55.5228 20.0288 54.5312 21.4829 51.877 21.4829H51.8728Z" fill="white"/>
<path fill-rule="evenodd" clip-rule="evenodd" d="M62.6475 24.2286H66.8225V14.0036C68.0225 13.3286 70.3391 12.6786 72.0391 12.4327V9.27441C70.1183 9.52025 68.0225 10.2661 66.6975 11.0994L66.5058 9.58275H62.6475V24.2244V24.2286Z" fill="white"/>
<path fill-rule="evenodd" clip-rule="evenodd" d="M45.0186 36.5876V30.8376H45.8019L45.8519 31.2292C46.0311 31.0667 46.2227 30.9501 46.4352 30.8709C46.6477 30.7917 46.8977 30.7542 47.1852 30.7542C47.7519 30.7542 48.1936 30.9084 48.5102 31.2167C48.8269 31.5251 48.9852 32.0334 48.9852 32.7459C48.9852 33.4584 48.8227 33.9876 48.4936 34.3417C48.1644 34.6959 47.7186 34.8709 47.1519 34.8709C46.6727 34.8709 46.2644 34.7584 45.9269 34.5376V36.5876H45.0186ZM46.9186 34.1876C47.6852 34.1876 48.0686 33.7042 48.0686 32.7376C48.0686 32.2709 47.9811 31.9376 47.8102 31.7417C47.6394 31.5459 47.3477 31.4459 46.9436 31.4459C46.5394 31.4459 46.1977 31.5834 45.9269 31.8626V33.8376C46.0561 33.9417 46.1977 34.0292 46.3561 34.0917C46.5144 34.1542 46.7019 34.1876 46.9186 34.1876ZM53.7019 34.7876V30.8376H54.5352L54.5852 31.2959C54.7727 31.1751 54.9977 31.0626 55.2602 30.9626C55.5227 30.8626 55.7811 30.7917 56.0352 30.7542V31.4459C55.8811 31.4751 55.7102 31.5126 55.5311 31.5667C55.3519 31.6209 55.1811 31.6792 55.0186 31.7417C54.8561 31.8042 54.7227 31.8709 54.6102 31.9376V34.7876H53.7019ZM60.8602 30.0126V29.2626H61.8519V30.0126H60.8602ZM60.9352 34.7876V31.5292H60.3352L60.4186 30.8376H61.8436V34.7876H60.9352ZM67.9602 34.7876L66.4019 30.8376H67.3436L68.4519 33.9042L69.5602 30.8376H70.4936L68.9436 34.7876H67.9602ZM76.0769 34.8709C75.8269 34.8709 75.5936 34.8251 75.3811 34.7376C75.1686 34.6501 74.9977 34.5126 74.8686 34.3334C74.7394 34.1542 74.6769 33.9292 74.6769 33.6626C74.6769 33.2834 74.8061 32.9792 75.0644 32.7501C75.3227 32.5209 75.7227 32.4042 76.2602 32.4042H77.5269V32.2292C77.5269 32.0417 77.4977 31.8917 77.4394 31.7792C77.3811 31.6667 77.2769 31.5876 77.1227 31.5376C76.9686 31.4876 76.7477 31.4626 76.4519 31.4626C75.9852 31.4626 75.5477 31.5334 75.1436 31.6709V30.9959C75.3227 30.9251 75.5394 30.8667 75.7936 30.8209C76.0477 30.7751 76.3227 30.7542 76.6186 30.7542C77.1977 30.7542 77.6352 30.8709 77.9394 31.1042C78.2436 31.3376 78.3936 31.7167 78.3936 32.2459V34.7876H77.6186L77.5602 34.3876C77.3977 34.5417 77.2019 34.6626 76.9644 34.7459C76.7269 34.8292 76.4311 34.8709 76.0769 34.8709ZM76.3186 34.2209C76.5894 34.2209 76.8269 34.1751 77.0311 34.0834C77.2352 33.9917 77.3977 33.8667 77.5269 33.7126V33.0209H76.2769C76.0102 33.0209 75.8186 33.0709 75.6977 33.1751C75.5769 33.2792 75.5186 33.4334 75.5186 33.6459C75.5186 33.8584 75.5894 34.0001 75.7269 34.0876C75.8644 34.1751 76.0644 34.2209 76.3186 34.2209ZM84.7436 34.8709C84.3227 34.8709 84.0061 34.7584 83.7977 34.5334C83.5894 34.3084 83.4852 34.0001 83.4852 33.6126V31.5459H82.9019V30.8376H83.4852V29.9292L84.3852 29.6542V30.8376H85.4352L85.3769 31.5459H84.3852V33.5626C84.3852 33.7917 84.4394 33.9501 84.5436 34.0417C84.6477 34.1334 84.8227 34.1792 85.0602 34.1792C85.2102 34.1792 85.3686 34.1501 85.5352 34.0959V34.7376C85.3186 34.8251 85.0561 34.8709 84.7436 34.8709ZM92.0602 34.8709C91.3727 34.8709 90.8394 34.7001 90.4602 34.3626C90.0811 34.0251 89.8936 33.5042 89.8936 32.8042C89.8936 32.1709 90.056 31.6709 90.3769 31.3042C90.6977 30.9376 91.1894 30.7542 91.8436 30.7542C92.4436 30.7542 92.8936 30.9126 93.1977 31.2251C93.5019 31.5376 93.6519 31.9417 93.6519 32.4376V33.1709H90.7602C90.806 33.5542 90.9436 33.8167 91.1769 33.9626C91.4102 34.1084 91.7644 34.1792 92.2436 34.1792C92.4436 34.1792 92.6477 34.1584 92.8602 34.1209C93.0727 34.0834 93.2561 34.0334 93.4102 33.9709V34.6376C93.231 34.7167 93.0269 34.7751 92.7977 34.8126C92.5686 34.8501 92.3227 34.8709 92.0602 34.8709ZM90.7602 32.5792H92.8519V32.3042C92.8519 32.0334 92.7769 31.8209 92.6269 31.6667C92.4769 31.5126 92.2227 31.4376 91.8686 31.4376C91.4477 31.4376 91.1561 31.5292 90.9977 31.7126C90.8394 31.8959 90.7602 32.1834 90.7602 32.5792ZM112.194 34.8709C111.873 34.8709 111.627 34.7917 111.46 34.6334C111.294 34.4751 111.21 34.2126 111.21 33.8459V29.1709H112.119V33.7626C112.119 33.9167 112.148 34.0251 112.202 34.0792C112.256 34.1334 112.339 34.1626 112.452 34.1626C112.585 34.1626 112.714 34.1459 112.835 34.1126V34.7709C112.731 34.8084 112.627 34.8376 112.531 34.8501C112.435 34.8626 112.323 34.8709 112.194 34.8709ZM117.419 30.0126V29.2626H118.41V30.0126H117.419ZM117.494 34.7876V31.5292H116.894L116.977 30.8376H118.402V34.7876H117.494ZM123.294 34.7876V30.8376H124.127L124.169 31.2542C124.364 31.1001 124.577 30.9751 124.81 30.8876C125.044 30.8001 125.294 30.7542 125.56 30.7542C125.844 30.7542 126.064 30.8001 126.223 30.8917C126.381 30.9834 126.502 31.1084 126.585 31.2709C126.769 31.1209 126.981 30.9959 127.219 30.9001C127.456 30.8042 127.744 30.7542 128.077 30.7542C128.531 30.7542 128.869 30.8709 129.085 31.1042C129.302 31.3376 129.41 31.6959 129.41 32.1792V34.7876H128.519V32.2709C128.519 31.9667 128.456 31.7501 128.327 31.6292C128.198 31.5084 127.989 31.4459 127.702 31.4459C127.514 31.4459 127.335 31.4792 127.164 31.5459C126.994 31.6126 126.848 31.7126 126.727 31.8459C126.744 31.9084 126.756 31.9709 126.76 32.0376C126.764 32.1042 126.769 32.1751 126.769 32.2542V34.7876H125.927V32.2792C125.927 31.9917 125.877 31.7792 125.777 31.6459C125.677 31.5126 125.489 31.4459 125.21 31.4459C125.014 31.4459 124.831 31.4917 124.656 31.5834C124.481 31.6751 124.323 31.7834 124.185 31.9126V34.7876H123.294ZM134.594 30.0126V29.2626H135.585V30.0126H134.594ZM134.669 34.7876V31.5292H134.069L134.152 30.8376H135.577V34.7876H134.669ZM141.977 34.8709C141.556 34.8709 141.239 34.7584 141.031 34.5334C140.823 34.3084 140.719 34.0001 140.719 33.6126V31.5459H140.135V30.8376H140.719V29.9292L141.619 29.6542V30.8376H142.669L142.61 31.5459H141.619V33.5626C141.619 33.7917 141.673 33.9501 141.777 34.0417C141.881 34.1334 142.056 34.1792 142.294 34.1792C142.444 34.1792 142.602 34.1501 142.769 34.0959V34.7376C142.552 34.8251 142.289 34.8709 141.977 34.8709ZM149.294 34.8709C148.606 34.8709 148.073 34.7001 147.694 34.3626C147.314 34.0251 147.127 33.5042 147.127 32.8042C147.127 32.1709 147.289 31.6709 147.61 31.3042C147.931 30.9376 148.423 30.7542 149.077 30.7542C149.677 30.7542 150.127 30.9126 150.431 31.2251C150.735 31.5376 150.885 31.9417 150.885 32.4376V33.1709H147.994C148.039 33.5542 148.177 33.8167 148.41 33.9626C148.644 34.1084 148.998 34.1792 149.477 34.1792C149.677 34.1792 149.881 34.1584 150.094 34.1209C150.306 34.0834 150.489 34.0334 150.644 33.9709V34.6376C150.464 34.7167 150.26 34.7751 150.031 34.8126C149.802 34.8501 149.556 34.8709 149.294 34.8709ZM147.994 32.5792H150.085V32.3042C150.085 32.0334 150.01 31.8209 149.86 31.6667C149.71 31.5126 149.456 31.4376 149.102 31.4376C148.681 31.4376 148.389 31.5292 148.231 31.7126C148.073 31.8959 147.994 32.1834 147.994 32.5792ZM157.235 34.8709C156.881 34.8709 156.564 34.8084 156.294 34.6876C156.023 34.5667 155.81 34.3626 155.66 34.0792C155.51 33.7959 155.435 33.4167 155.435 32.9376C155.435 32.4584 155.514 32.0667 155.677 31.7417C155.839 31.4167 156.06 31.1709 156.348 31.0042C156.635 30.8376 156.956 30.7542 157.319 30.7542C157.556 30.7542 157.769 30.7834 157.956 30.8376C158.144 30.8917 158.323 30.9792 158.494 31.0959V29.1709H159.402V34.7876H158.627L158.569 34.3959C158.389 34.5584 158.198 34.6751 157.985 34.7542C157.773 34.8334 157.523 34.8709 157.235 34.8709ZM157.477 34.1876C157.881 34.1876 158.223 34.0501 158.494 33.7709V31.7959C158.231 31.5626 157.906 31.4459 157.51 31.4459C157.114 31.4459 156.839 31.5751 156.644 31.8292C156.448 32.0834 156.352 32.4584 156.352 32.9459C156.352 33.4334 156.444 33.7417 156.623 33.9209C156.802 34.1001 157.089 34.1876 157.477 34.1876Z" fill="white"/>
</svg>
