<svg width="240" height="60" viewBox="0 0 240 60" fill="none" xmlns="http://www.w3.org/2000/svg">
<g clip-path="url(#clip0_98_537)">
<path fill-rule="evenodd" clip-rule="evenodd" d="M22.9625 60H0V0H22.9625V4.71875H4.71875V55.2812H22.9625V60Z" fill="#6039BB"/>
<path fill-rule="evenodd" clip-rule="evenodd" d="M51.6375 60H28.6562V55.2812H46.9125V4.71875H28.6562V0H51.6375V60Z" fill="#6039BB"/>
<path fill-rule="evenodd" clip-rule="evenodd" d="M28.95 27.0934H13.3V12.5996H28.95C32.225 12.5996 34.8813 15.2559 34.8813 18.5184V21.1746C34.8813 24.4496 32.225 27.0934 28.95 27.0934Z" fill="#19C9D1"/>
<path fill-rule="evenodd" clip-rule="evenodd" d="M31.3125 47.3879H13.2937V30.2129H31.3125C35.1937 30.2129 38.3375 33.3566 38.3375 37.2379V40.3816C38.3375 44.2629 35.1937 47.3941 31.3125 47.3941V47.3879Z" fill="#19C9D1"/>
<path fill-rule="evenodd" clip-rule="evenodd" d="M191.569 36.8006C194.763 36.8006 197.537 36.3381 199.581 35.4193V30.9631C197.869 31.6631 195.188 32.1193 192.875 32.1193C188.194 32.1193 185.644 31.0568 185 27.5443H200.888V23.5568C200.888 17.8068 197.181 13.9131 190.369 13.9131C182.962 13.9131 179.212 18.3193 179.212 25.3131C179.212 33.0443 183.975 36.7943 191.575 36.7943L191.569 36.8006ZM184.994 23.6881C184.994 19.9943 186.425 18.4131 190.544 18.4131C194.069 18.4131 195.413 19.9943 195.413 22.4881V23.6818H184.994V23.6881Z" fill="#6039BB"/>
<path fill-rule="evenodd" clip-rule="evenodd" d="M230.013 36.8002C236.406 36.8002 239.744 34.5377 239.744 30.1314C239.744 26.3314 238.163 24.6627 232.931 23.0439C229.313 21.9377 227.7 21.7002 227.7 20.3627C227.7 19.1127 229.425 18.8752 232.056 18.8752C233.913 18.8752 236.275 19.2939 237.95 20.0877V14.9439C236.281 14.3752 233.731 13.9189 231.044 13.9189C224.231 13.9189 221.363 16.2877 221.363 20.4564C221.363 24.2564 223.588 25.8252 227.613 27.1752C231.413 28.4252 233.4 28.7377 233.4 30.2252C233.4 31.5252 232.244 31.7502 229.194 31.7502C226.881 31.7502 223.906 31.2877 221.775 30.4064V35.6002C223.588 36.2814 226.731 36.7939 230.019 36.7939L230.013 36.8002Z" fill="#6039BB"/>
<path fill-rule="evenodd" clip-rule="evenodd" d="M213.937 36.8004C215.937 36.8004 217.462 36.5254 218.844 35.9754V31.6629C217.881 31.9941 217.044 32.1254 216.162 32.1254C213.806 32.1254 212.744 31.3879 212.744 28.9816V19.2066H217.925L218.294 14.3816H212.744V7.80664L206.481 9.66289V14.3816H203.375V19.2066H206.481V29.4004C206.481 33.9754 208.85 36.8066 213.937 36.8066V36.8004Z" fill="#6039BB"/>
<path fill-rule="evenodd" clip-rule="evenodd" d="M115.363 36.8002C119.163 36.8002 121.613 35.9189 123.331 34.3564L123.65 36.3439H129.081V22.4002C129.081 16.4689 125.281 13.9189 118.706 13.9189C115.219 13.9189 112.206 14.5252 110.169 15.3127V19.7189C112.406 18.9689 114.944 18.5502 117.4 18.5502C121.938 18.5502 123.094 19.5752 123.094 22.2564V22.8627H116.613C110.588 22.8627 107.538 25.6877 107.538 29.9877C107.538 34.5377 111.144 36.8002 115.363 36.8002ZM117.075 32.6814C114.338 32.6814 113.088 31.6189 113.088 29.7627C113.088 27.7252 114.3 26.7502 116.756 26.7502H123.094V30.2252C121.894 31.6564 119.856 32.6877 117.069 32.6877L117.075 32.6814Z" fill="#6039BB"/>
<path fill-rule="evenodd" clip-rule="evenodd" d="M156.45 36.3441H162.713V29.1191L165.25 26.6629L171.931 36.3441H178.544L169.194 23.3754L178.031 14.3754H170.906L162.713 22.3066V5.11914H156.45V36.3441Z" fill="#6039BB"/>
<path fill-rule="evenodd" clip-rule="evenodd" d="M144.637 36.8C147.556 36.8 149.963 36.3937 152.094 35.4562V30.825C150.294 31.7062 148.162 32.1125 146.031 32.1125C140.981 32.1125 138.85 30.0875 138.85 25.35C138.85 20.2063 141.388 18.5875 146.069 18.5875C148.381 18.5875 150.512 19.05 152.056 19.8V15.3C149.962 14.325 147.925 13.9062 144.825 13.9062C137.369 13.9062 132.5 17.6125 132.5 25.35C132.5 33.0875 136.812 36.7937 144.637 36.7937V36.8Z" fill="#6039BB"/>
<path fill-rule="evenodd" clip-rule="evenodd" d="M79.325 36.8004C85.4812 36.8004 89.375 33.0941 89.375 25.1754C89.375 17.2566 85.4437 13.9191 79.1437 13.9191C76.725 13.9191 74.4625 14.4879 72.6625 15.5879V5.11914H66.4V36.3441H71.8187L72.15 34.3066C74.0437 35.9754 76.225 36.8066 79.3312 36.8066L79.325 36.8004ZM77.5625 32.2254C75.6562 32.2254 73.8562 31.5254 72.6562 30.2254V20.1254C73.8125 19.0629 75.5625 18.5066 77.5125 18.5066C81.3687 18.5066 83.0375 20.3066 83.0375 25.1754C83.0375 30.0441 81.55 32.2254 77.5687 32.2254H77.5625Z" fill="#6039BB"/>
<path fill-rule="evenodd" clip-rule="evenodd" d="M93.725 36.3443H99.9875V21.0068C101.787 19.9943 105.263 19.0193 107.813 18.6506V13.9131C104.931 14.2818 101.787 15.4006 99.8 16.6506L99.5125 14.3756H93.725V36.3381V36.3443Z" fill="#6039BB"/>
<path fill-rule="evenodd" clip-rule="evenodd" d="M67.2812 54.8818V46.2568H68.4562L68.5313 46.8443C68.8 46.6006 69.0875 46.4256 69.4063 46.3068C69.725 46.1881 70.1 46.1318 70.5312 46.1318C71.3812 46.1318 72.0437 46.3631 72.5187 46.8256C72.9937 47.2881 73.2312 48.0506 73.2312 49.1193C73.2312 50.1881 72.9875 50.9818 72.4937 51.5131C72 52.0443 71.3312 52.3068 70.4812 52.3068C69.7625 52.3068 69.15 52.1381 68.6438 51.8068V54.8818H67.2812ZM70.1312 51.2818C71.2812 51.2818 71.8563 50.5568 71.8563 49.1068C71.8563 48.4068 71.725 47.9068 71.4687 47.6131C71.2125 47.3193 70.775 47.1693 70.1687 47.1693C69.5625 47.1693 69.05 47.3756 68.6438 47.7943V50.7568C68.8375 50.9131 69.05 51.0443 69.2875 51.1381C69.525 51.2318 69.8062 51.2818 70.1312 51.2818ZM80.3063 52.1818V46.2568H81.5563L81.6313 46.9443C81.9125 46.7631 82.25 46.5943 82.6437 46.4443C83.0375 46.2943 83.425 46.1881 83.8062 46.1318V47.1693C83.575 47.2131 83.3188 47.2693 83.05 47.3506C82.7813 47.4318 82.525 47.5193 82.2812 47.6131C82.0375 47.7068 81.8375 47.8068 81.6687 47.9068V52.1818H80.3063ZM91.0438 45.0193V43.8943H92.5313V45.0193H91.0438ZM91.1563 52.1818V47.2943H90.2563L90.3813 46.2568H92.5188V52.1818H91.1563ZM101.694 52.1818L99.3563 46.2568H100.769L102.431 50.8568L104.094 46.2568H105.494L103.169 52.1818H101.694ZM113.869 52.3068C113.494 52.3068 113.144 52.2381 112.825 52.1068C112.506 51.9756 112.25 51.7693 112.056 51.5006C111.862 51.2318 111.769 50.8943 111.769 50.4943C111.769 49.9256 111.963 49.4693 112.35 49.1256C112.737 48.7818 113.338 48.6068 114.144 48.6068H116.044V48.3443C116.044 48.0631 116 47.8381 115.913 47.6693C115.825 47.5006 115.669 47.3818 115.438 47.3068C115.206 47.2318 114.875 47.1943 114.431 47.1943C113.731 47.1943 113.075 47.3006 112.469 47.5068V46.4943C112.738 46.3881 113.062 46.3006 113.444 46.2318C113.825 46.1631 114.238 46.1318 114.681 46.1318C115.55 46.1318 116.206 46.3068 116.663 46.6568C117.119 47.0068 117.344 47.5756 117.344 48.3693V52.1818H116.181L116.094 51.5818C115.85 51.8131 115.556 51.9943 115.2 52.1193C114.844 52.2443 114.4 52.3068 113.869 52.3068ZM114.231 51.3318C114.638 51.3318 114.994 51.2631 115.3 51.1256C115.606 50.9881 115.85 50.8006 116.044 50.5693V49.5318H114.169C113.769 49.5318 113.481 49.6068 113.3 49.7631C113.119 49.9193 113.031 50.1506 113.031 50.4693C113.031 50.7881 113.138 51.0006 113.344 51.1318C113.55 51.2631 113.85 51.3318 114.231 51.3318ZM126.869 52.3068C126.238 52.3068 125.763 52.1381 125.45 51.8006C125.138 51.4631 124.981 51.0006 124.981 50.4193V47.3193H124.106V46.2568H124.981V44.8943L126.331 44.4818V46.2568H127.906L127.819 47.3193H126.331V50.3443C126.331 50.6881 126.413 50.9256 126.569 51.0631C126.725 51.2006 126.988 51.2693 127.344 51.2693C127.569 51.2693 127.806 51.2256 128.056 51.1443V52.1068C127.731 52.2381 127.338 52.3068 126.869 52.3068ZM137.844 52.3068C136.813 52.3068 136.013 52.0506 135.444 51.5443C134.875 51.0381 134.594 50.2568 134.594 49.2068C134.594 48.2568 134.838 47.5068 135.319 46.9568C135.8 46.4068 136.538 46.1318 137.519 46.1318C138.419 46.1318 139.094 46.3693 139.55 46.8381C140.006 47.3068 140.231 47.9131 140.231 48.6568V49.7568H135.894C135.963 50.3318 136.169 50.7256 136.519 50.9443C136.869 51.1631 137.4 51.2693 138.119 51.2693C138.419 51.2693 138.725 51.2381 139.044 51.1818C139.363 51.1256 139.638 51.0506 139.869 50.9568V51.9568C139.6 52.0756 139.294 52.1631 138.95 52.2193C138.606 52.2756 138.238 52.3068 137.844 52.3068ZM135.894 48.8693H139.031V48.4568C139.031 48.0506 138.919 47.7318 138.694 47.5006C138.469 47.2693 138.088 47.1568 137.556 47.1568C136.925 47.1568 136.488 47.2943 136.25 47.5693C136.013 47.8443 135.894 48.2756 135.894 48.8693ZM168.044 52.3068C167.563 52.3068 167.194 52.1881 166.944 51.9506C166.694 51.7131 166.569 51.3193 166.569 50.7693V43.7568H167.931V50.6443C167.931 50.8756 167.975 51.0381 168.056 51.1193C168.138 51.2006 168.263 51.2443 168.431 51.2443C168.631 51.2443 168.825 51.2193 169.006 51.1693V52.1568C168.85 52.2131 168.694 52.2568 168.55 52.2756C168.406 52.2943 168.238 52.3068 168.044 52.3068ZM175.881 45.0193V43.8943H177.369V45.0193H175.881ZM175.994 52.1818V47.2943H175.094L175.219 46.2568H177.356V52.1818H175.994ZM184.694 52.1818V46.2568H185.944L186.006 46.8818C186.3 46.6506 186.619 46.4631 186.969 46.3318C187.319 46.2006 187.694 46.1318 188.094 46.1318C188.519 46.1318 188.85 46.2006 189.088 46.3381C189.325 46.4756 189.506 46.6631 189.631 46.9068C189.906 46.6818 190.225 46.4943 190.581 46.3506C190.938 46.2068 191.369 46.1318 191.869 46.1318C192.55 46.1318 193.056 46.3068 193.381 46.6568C193.706 47.0068 193.869 47.5443 193.869 48.2693V52.1818H192.531V48.4068C192.531 47.9506 192.438 47.6256 192.244 47.4443C192.05 47.2631 191.738 47.1693 191.306 47.1693C191.025 47.1693 190.756 47.2193 190.5 47.3193C190.244 47.4193 190.025 47.5693 189.844 47.7693C189.869 47.8631 189.888 47.9568 189.894 48.0568C189.9 48.1568 189.906 48.2631 189.906 48.3818V52.1818H188.644V48.4193C188.644 47.9881 188.569 47.6693 188.419 47.4693C188.269 47.2693 187.988 47.1693 187.569 47.1693C187.275 47.1693 187 47.2381 186.738 47.3756C186.475 47.5131 186.238 47.6756 186.031 47.8693V52.1818H184.694ZM201.644 45.0193V43.8943H203.131V45.0193H201.644ZM201.756 52.1818V47.2943H200.856L200.981 46.2568H203.119V52.1818H201.756ZM212.719 52.3068C212.088 52.3068 211.613 52.1381 211.3 51.8006C210.988 51.4631 210.831 51.0006 210.831 50.4193V47.3193H209.956V46.2568H210.831V44.8943L212.181 44.4818V46.2568H213.756L213.669 47.3193H212.181V50.3443C212.181 50.6881 212.263 50.9256 212.419 51.0631C212.575 51.2006 212.838 51.2693 213.194 51.2693C213.419 51.2693 213.656 51.2256 213.906 51.1443V52.1068C213.581 52.2381 213.188 52.3068 212.719 52.3068ZM223.694 52.3068C222.663 52.3068 221.863 52.0506 221.294 51.5443C220.725 51.0381 220.444 50.2568 220.444 49.2068C220.444 48.2568 220.688 47.5068 221.169 46.9568C221.65 46.4068 222.388 46.1318 223.369 46.1318C224.269 46.1318 224.944 46.3693 225.4 46.8381C225.856 47.3068 226.081 47.9131 226.081 48.6568V49.7568H221.744C221.813 50.3318 222.019 50.7256 222.369 50.9443C222.719 51.1631 223.25 51.2693 223.969 51.2693C224.269 51.2693 224.575 51.2381 224.894 51.1818C225.213 51.1256 225.488 51.0506 225.719 50.9568V51.9568C225.45 52.0756 225.144 52.1631 224.8 52.2193C224.456 52.2756 224.088 52.3068 223.694 52.3068ZM221.744 48.8693H224.881V48.4568C224.881 48.0506 224.769 47.7318 224.544 47.5006C224.319 47.2693 223.938 47.1568 223.406 47.1568C222.775 47.1568 222.338 47.2943 222.1 47.5693C221.863 47.8443 221.744 48.2756 221.744 48.8693ZM235.606 52.3068C235.075 52.3068 234.6 52.2131 234.194 52.0318C233.788 51.8506 233.469 51.5443 233.244 51.1193C233.019 50.6943 232.906 50.1256 232.906 49.4068C232.906 48.6881 233.025 48.1006 233.269 47.6131C233.513 47.1256 233.844 46.7568 234.275 46.5068C234.706 46.2568 235.188 46.1318 235.731 46.1318C236.088 46.1318 236.406 46.1756 236.688 46.2568C236.969 46.3381 237.238 46.4693 237.494 46.6443V43.7568H238.856V52.1818H237.694L237.606 51.5943C237.338 51.8381 237.05 52.0131 236.731 52.1318C236.413 52.2506 236.038 52.3068 235.606 52.3068ZM235.969 51.2818C236.575 51.2818 237.088 51.0756 237.494 50.6568V47.6943C237.1 47.3443 236.613 47.1693 236.019 47.1693C235.425 47.1693 235.013 47.3631 234.719 47.7443C234.425 48.1256 234.281 48.6881 234.281 49.4193C234.281 50.1506 234.419 50.6131 234.688 50.8818C234.956 51.1506 235.388 51.2818 235.969 51.2818Z" fill="#6039BB"/>
</g>
<defs>
<clipPath id="clip0_98_537">
<rect width="239.744" height="60" fill="white"/>
</clipPath>
</defs>
</svg>
